<svg width="16" height="16" viewBox="0 0 16 16" fill="none" xmlns="http://www.w3.org/2000/svg">
<rect x="0.5" y="0.5" width="15" height="15" rx="2.5" fill="#FF776A" stroke="#C9CDD2"/>
<path d="M10.9699 4.97047C11.1108 4.83636 11.2982 4.76222 11.4927 4.76369C11.6872 4.76516 11.8735 4.84214 12.0124 4.97836C12.1512 5.11459 12.2317 5.29942 12.2368 5.49385C12.2419 5.68828 12.1713 5.8771 12.0399 6.02047L8.04991 11.0105C7.9813 11.0844 7.8985 11.1437 7.80645 11.1848C7.71439 11.226 7.61498 11.2482 7.51416 11.2501C7.41334 11.2519 7.31318 11.2334 7.21967 11.1957C7.12616 11.158 7.04121 11.1018 6.96991 11.0305L4.32391 8.38447C4.25023 8.31581 4.19112 8.23301 4.15013 8.14101C4.10914 8.04901 4.0871 7.9497 4.08532 7.849C4.08355 7.74829 4.10207 7.64827 4.13979 7.55488C4.17751 7.46149 4.23366 7.37666 4.30488 7.30544C4.37609 7.23422 4.46093 7.17807 4.55432 7.14035C4.6477 7.10263 4.74773 7.08411 4.84844 7.08588C4.94914 7.08766 5.04845 7.1097 5.14045 7.15069C5.23245 7.19169 5.31525 7.25079 5.38391 7.32447L7.47791 9.41747L10.9509 4.99248C10.9572 4.98478 10.9638 4.97743 10.9709 4.97047H10.9699Z" fill="white"/>
</svg>
