<svg width="10" height="10" viewBox="0 0 10 10" fill="none" xmlns="http://www.w3.org/2000/svg">
<path d="M5.93999 4.9998L8.80665 2.1398C8.93219 2.01426 9.00272 1.844 9.00272 1.66646C9.00272 1.48893 8.93219 1.31867 8.80665 1.19313C8.68112 1.0676 8.51086 0.99707 8.33332 0.99707C8.15579 0.99707 7.98552 1.0676 7.85999 1.19313L4.99999 4.0598L2.13999 1.19313C2.01445 1.0676 1.84419 0.99707 1.66666 0.99707C1.48912 0.99707 1.31886 1.0676 1.19332 1.19313C1.06779 1.31867 0.997262 1.48893 0.997262 1.66646C0.997262 1.844 1.06779 2.01426 1.19332 2.1398L4.05999 4.9998L1.19332 7.8598C1.13084 7.92177 1.08124 7.99551 1.0474 8.07675C1.01355 8.15799 0.996124 8.24512 0.996124 8.33313C0.996124 8.42114 1.01355 8.50828 1.0474 8.58952C1.08124 8.67076 1.13084 8.74449 1.19332 8.80646C1.2553 8.86895 1.32903 8.91855 1.41027 8.95239C1.49151 8.98624 1.57865 9.00366 1.66666 9.00366C1.75466 9.00366 1.8418 8.98624 1.92304 8.95239C2.00428 8.91855 2.07801 8.86895 2.13999 8.80646L4.99999 5.9398L7.85999 8.80646C7.92196 8.86895 7.9957 8.91855 8.07694 8.95239C8.15818 8.98624 8.24531 9.00366 8.33332 9.00366C8.42133 9.00366 8.50847 8.98624 8.58971 8.95239C8.67095 8.91855 8.74468 8.86895 8.80665 8.80646C8.86914 8.74449 8.91874 8.67076 8.95258 8.58952C8.98643 8.50828 9.00385 8.42114 9.00385 8.33313C9.00385 8.24512 8.98643 8.15799 8.95258 8.07675C8.91874 7.99551 8.86914 7.92177 8.80665 7.8598L5.93999 4.9998Z" fill="#72787F"/>
</svg>
