<svg width="16" height="18" viewBox="0 0 16 18" fill="none" xmlns="http://www.w3.org/2000/svg">
<path d="M13.8326 17.3332H2.16593C1.72391 17.3332 1.29998 17.1576 0.987423 16.845C0.674862 16.5325 0.499268 16.1085 0.499268 15.6665V3.99984C0.499268 3.55781 0.674862 3.13389 0.987423 2.82133C1.29998 2.50877 1.72391 2.33317 2.16593 2.33317H3.8326V0.666504H5.49927V2.33317H10.4993V0.666504H12.1659V2.33317H13.8326C14.2746 2.33317 14.6986 2.50877 15.0111 2.82133C15.3237 3.13389 15.4993 3.55781 15.4993 3.99984V15.6665C15.4993 16.1085 15.3237 16.5325 15.0111 16.845C14.6986 17.1576 14.2746 17.3332 13.8326 17.3332ZM2.16593 7.33317V15.6665H13.8326V7.33317H2.16593ZM2.16593 3.99984V5.6665H13.8326V3.99984H2.16593Z" fill="#72787F"/>
</svg>
