<svg width="7" height="12" viewBox="0 0 7 12" fill="none" xmlns="http://www.w3.org/2000/svg">
<path d="M5.52522 11.8332C5.40072 11.8337 5.27771 11.8062 5.16523 11.7528C5.05275 11.6995 4.95365 11.6216 4.87522 11.5249L0.850218 6.5249C0.72765 6.37579 0.660645 6.18876 0.660645 5.99574C0.660645 5.80272 0.72765 5.61568 0.850218 5.46657L5.01688 0.466571C5.15833 0.29639 5.36159 0.18937 5.58195 0.169054C5.8023 0.148737 6.0217 0.216789 6.19188 0.358238C6.36206 0.499686 6.46908 0.702946 6.4894 0.923301C6.50971 1.14366 6.44166 1.36306 6.30021 1.53324L2.57522 5.9999L6.17521 10.4666C6.27712 10.5889 6.34185 10.7378 6.36175 10.8958C6.38165 11.0538 6.35588 11.2141 6.2875 11.3579C6.21912 11.5017 6.11099 11.6228 5.9759 11.7071C5.84081 11.7913 5.68441 11.8351 5.52522 11.8332Z" fill="#72787F"/>
</svg>
