<svg width="40" height="40" viewBox="0 0 40 40" fill="none" xmlns="http://www.w3.org/2000/svg">
<path d="M20 37.5C15.3587 37.5 10.9075 35.6563 7.62563 32.3744C4.34374 29.0925 2.5 24.6413 2.5 20C2.5 15.3587 4.34374 10.9075 7.62563 7.62563C10.9075 4.34374 15.3587 2.5 20 2.5C24.6413 2.5 29.0925 4.34374 32.3744 7.62563C35.6563 10.9075 37.5 15.3587 37.5 20C37.5 24.6413 35.6563 29.0925 32.3744 32.3744C29.0925 35.6563 24.6413 37.5 20 37.5ZM20 40C25.3043 40 30.3914 37.8929 34.1421 34.1421C37.8929 30.3914 40 25.3043 40 20C40 14.6957 37.8929 9.60859 34.1421 5.85786C30.3914 2.10714 25.3043 0 20 0C14.6957 0 9.60859 2.10714 5.85786 5.85786C2.10714 9.60859 0 14.6957 0 20C0 25.3043 2.10714 30.3914 5.85786 34.1421C9.60859 37.8929 14.6957 40 20 40V40Z" fill="#72787F"/>
<path d="M22.3249 16.47L16.5999 17.1875L16.3949 18.1375L17.5199 18.345C18.2549 18.52 18.3999 18.785 18.2399 19.5175L16.3949 28.1875C15.9099 30.43 16.6574 31.485 18.4149 31.485C19.7774 31.485 21.3599 30.855 22.0774 29.99L22.2974 28.95C21.7974 29.39 21.0674 29.565 20.5824 29.565C19.8949 29.565 19.6449 29.0825 19.8224 28.2325L22.3249 16.47ZM22.4999 11.25C22.4999 11.913 22.2365 12.5489 21.7676 13.0178C21.2988 13.4866 20.6629 13.75 19.9999 13.75C19.3368 13.75 18.701 13.4866 18.2321 13.0178C17.7633 12.5489 17.4999 11.913 17.4999 11.25C17.4999 10.587 17.7633 9.95107 18.2321 9.48223C18.701 9.01339 19.3368 8.75 19.9999 8.75C20.6629 8.75 21.2988 9.01339 21.7676 9.48223C22.2365 9.95107 22.4999 10.587 22.4999 11.25Z" fill="#72787F"/>
</svg>
