<svg width="9" height="13" viewBox="0 0 9 13" fill="none" xmlns="http://www.w3.org/2000/svg">
<path d="M5.23619 0C4.46459 0 3.72459 0.306518 3.17898 0.852124C2.63337 1.39773 2.32686 2.13773 2.32686 2.90933V8.1456C2.32686 8.37484 2.37201 8.60183 2.45973 8.81361C2.54746 9.0254 2.67604 9.21783 2.83813 9.37993C3.00022 9.54202 3.19266 9.6706 3.40444 9.75832C3.61623 9.84605 3.84322 9.8912 4.07246 9.8912C4.30169 9.8912 4.52868 9.84605 4.74047 9.75832C4.95225 9.6706 5.14469 9.54202 5.30678 9.37993C5.46888 9.21783 5.59746 9.0254 5.68518 8.81361C5.7729 8.60183 5.81806 8.37484 5.81806 8.1456V5.12427C5.81177 4.97425 5.74779 4.83246 5.63947 4.72848C5.53114 4.62451 5.38685 4.56638 5.2367 4.56625C5.08655 4.56611 4.94215 4.62397 4.83364 4.72774C4.72512 4.83152 4.66088 4.97319 4.65432 5.1232V8.16213C4.65432 8.31645 4.59302 8.46445 4.4839 8.57358C4.37478 8.6827 4.22678 8.744 4.07246 8.744C3.91814 8.744 3.77014 8.6827 3.66101 8.57358C3.55189 8.46445 3.49059 8.31645 3.49059 8.16213V8.14507V8.14613V2.90987C3.49059 2.68063 3.53574 2.45364 3.62347 2.24185C3.71119 2.03007 3.83977 1.83764 4.00186 1.67554C4.16396 1.51345 4.35639 1.38487 4.56818 1.29714C4.77996 1.20942 5.00695 1.16427 5.23619 1.16427C5.46543 1.16427 5.69242 1.20942 5.9042 1.29714C6.11599 1.38487 6.30842 1.51345 6.47052 1.67554C6.63261 1.83764 6.76119 2.03007 6.84891 2.24185C6.93664 2.45364 6.98179 2.68063 6.98179 2.90987V8.7264C6.98179 9.498 6.67527 10.238 6.12967 10.7836C5.58406 11.3292 4.84406 11.6357 4.07246 11.6357C3.30085 11.6357 2.56085 11.3292 2.01525 10.7836C1.46964 10.238 1.16312 9.498 1.16312 8.7264V2.89333C1.16312 2.73901 1.10182 2.59101 0.992698 2.48189C0.883577 2.37277 0.735577 2.31147 0.581256 2.31147C0.426936 2.31147 0.278936 2.37277 0.169814 2.48189C0.0606933 2.59101 -0.000610352 2.73901 -0.000610352 2.89333V2.9104V2.90933V8.72587C-0.000610329 9.80597 0.428459 10.8418 1.19221 11.6056C1.95596 12.3693 2.99182 12.7984 4.07192 12.7984C5.15203 12.7984 6.18789 12.3693 6.95164 11.6056C7.71539 10.8418 8.14446 9.80597 8.14446 8.72587V2.90933C8.14361 2.13799 7.83682 1.39848 7.2914 0.85306C6.74597 0.307637 6.00647 0.00084701 5.23512 0L5.23619 0Z" fill="#454C53"/>
</svg>
