<svg width="50" height="50" viewBox="0 0 50 50" fill="none" xmlns="http://www.w3.org/2000/svg">
<rect width="50" height="50" rx="25" fill="white"/>
<path d="M18 15.6667H16.8333C16.2145 15.6667 15.621 15.9126 15.1834 16.3502C14.7458 16.7878 14.5 17.3812 14.5 18.0001V22.0834C14.5 23.7852 15.176 25.4173 16.3794 26.6207C17.5828 27.824 19.2149 28.5001 20.9167 28.5001C22.6185 28.5001 24.2506 27.824 25.4539 26.6207C26.6573 25.4173 27.3333 23.7852 27.3333 22.0834V18.0001C27.3333 17.3812 27.0875 16.7878 26.6499 16.3502C26.2123 15.9126 25.6188 15.6667 25 15.6667H23.8333" stroke="#FF6359" stroke-width="2" stroke-linecap="round" stroke-linejoin="round"/>
<path d="M20.3333 28.5C20.3333 29.4193 20.5144 30.3295 20.8662 31.1788C21.218 32.0281 21.7336 32.7997 22.3836 33.4497C23.0336 34.0998 23.8053 34.6154 24.6545 34.9672C25.5038 35.3189 26.4141 35.5 27.3333 35.5C28.2526 35.5 29.1628 35.3189 30.0121 34.9672C30.8614 34.6154 31.6331 34.0998 32.2831 33.4497C32.9331 32.7997 33.4487 32.0281 33.8005 31.1788C34.1523 30.3295 34.3333 29.4193 34.3333 28.5V25M23.8333 14.5V16.8333M18 14.5V16.8333" stroke="#FF6359" stroke-width="2" stroke-linecap="round" stroke-linejoin="round"/>
<path d="M34.3333 24.9999C35.622 24.9999 36.6667 23.9553 36.6667 22.6666C36.6667 21.3779 35.622 20.3333 34.3333 20.3333C33.0447 20.3333 32 21.3779 32 22.6666C32 23.9553 33.0447 24.9999 34.3333 24.9999Z" stroke="#FF6359" stroke-width="2" stroke-linecap="round" stroke-linejoin="round"/>
</svg>
