<svg width="14" height="15" viewBox="0 0 14 15" fill="none" xmlns="http://www.w3.org/2000/svg">
<path d="M13.4502 9.77695L12.4268 8.90195C12.4752 8.60508 12.5002 8.30195 12.5002 7.99883C12.5002 7.6957 12.4752 7.39258 12.4268 7.0957L13.4502 6.2207C13.5274 6.15462 13.5826 6.0666 13.6086 5.96836C13.6346 5.87011 13.63 5.76629 13.5955 5.6707L13.5814 5.63008C13.2997 4.84262 12.8778 4.11263 12.3361 3.47539L12.308 3.44258C12.2423 3.36532 12.1547 3.30978 12.0568 3.28328C11.9589 3.25678 11.8553 3.26057 11.7596 3.29414L10.4893 3.7457C10.0205 3.36133 9.49707 3.0582 8.93145 2.8457L8.68614 1.51758C8.66763 1.41764 8.61915 1.32571 8.54715 1.25398C8.47514 1.18225 8.38302 1.13414 8.28301 1.11602L8.24082 1.1082C7.42676 0.961328 6.57051 0.961328 5.75645 1.1082L5.71426 1.11602C5.61426 1.13414 5.52213 1.18225 5.45013 1.25398C5.37812 1.32571 5.32964 1.41764 5.31114 1.51758L5.06426 2.85195C4.50315 3.0645 3.98062 3.36746 3.51739 3.74883L2.2377 3.29414C2.14202 3.2603 2.03831 3.25638 1.94035 3.28289C1.84239 3.3094 1.75481 3.3651 1.68926 3.44258L1.66114 3.47539C1.12011 4.11308 0.698286 4.84295 0.415823 5.63008L0.401761 5.6707C0.331448 5.86602 0.389261 6.08477 0.547073 6.2207L1.58301 7.10508C1.53457 7.39883 1.51114 7.69883 1.51114 7.99727C1.51114 8.29727 1.53457 8.59727 1.58301 8.88945L0.547073 9.77383C0.469879 9.83991 0.41463 9.92793 0.388673 10.0262C0.362716 10.1244 0.367281 10.2282 0.401761 10.3238L0.415823 10.3645C0.698636 11.152 1.11739 11.8785 1.66114 12.5191L1.68926 12.552C1.75497 12.6292 1.84255 12.6848 1.94045 12.7113C2.03836 12.7378 2.14199 12.734 2.2377 12.7004L3.51739 12.2457C3.98301 12.6285 4.50332 12.9316 5.06426 13.1426L5.31114 14.477C5.32964 14.5769 5.37812 14.6688 5.45013 14.7406C5.52213 14.8123 5.61426 14.8604 5.71426 14.8785L5.75645 14.8863C6.57799 15.034 7.41928 15.034 8.24082 14.8863L8.28301 14.8785C8.38302 14.8604 8.47514 14.8123 8.54715 14.7406C8.61915 14.6688 8.66763 14.5769 8.68614 14.477L8.93145 13.1488C9.49684 12.9369 10.0232 12.6328 10.4893 12.2488L11.7596 12.7004C11.8553 12.7342 11.959 12.7382 12.0569 12.7116C12.1549 12.6851 12.2425 12.6294 12.308 12.552L12.3361 12.5191C12.8799 11.877 13.2986 11.152 13.5814 10.3645L13.5955 10.3238C13.6658 10.1316 13.608 9.91289 13.4502 9.77695V9.77695ZM11.3174 7.28008C11.3564 7.51602 11.3768 7.7582 11.3768 8.00039C11.3768 8.24258 11.3564 8.48477 11.3174 8.7207L11.2143 9.34727L12.3814 10.3457C12.2045 10.7533 11.9812 11.1392 11.7158 11.4957L10.2658 10.9816L9.7752 11.3848C9.40176 11.691 8.98614 11.9316 8.53614 12.1004L7.94082 12.3238L7.66114 13.8395C7.21984 13.8895 6.77431 13.8895 6.33301 13.8395L6.05332 12.3207L5.4627 12.0941C5.01739 11.9254 4.60332 11.6848 4.23301 11.3801L3.74239 10.9754L2.28301 11.4941C2.01739 11.1363 1.79551 10.7504 1.61739 10.3441L2.79707 9.33633L2.69551 8.71133C2.65801 8.47852 2.6377 8.23789 2.6377 8.00039C2.6377 7.76133 2.65645 7.52227 2.69551 7.28945L2.79707 6.66445L1.61739 5.65664C1.79395 5.24883 2.01739 4.86445 2.28301 4.50664L3.74239 5.02539L4.23301 4.6207C4.60332 4.31602 5.01739 4.07539 5.4627 3.90664L6.05489 3.6832L6.33457 2.16445C6.77364 2.11445 7.22207 2.11445 7.6627 2.16445L7.94239 3.68008L8.5377 3.90352C8.98614 4.07227 9.40332 4.31289 9.77676 4.61914L10.2674 5.02227L11.7174 4.5082C11.983 4.86602 12.2049 5.25195 12.383 5.6582L11.2158 6.65664L11.3174 7.28008ZM7.0002 5.09414C5.48145 5.09414 4.2502 6.32539 4.2502 7.84414C4.2502 9.36289 5.48145 10.5941 7.0002 10.5941C8.51895 10.5941 9.7502 9.36289 9.7502 7.84414C9.7502 6.32539 8.51895 5.09414 7.0002 5.09414ZM8.2377 9.08164C8.07539 9.24442 7.8825 9.3735 7.67012 9.46145C7.45774 9.5494 7.23007 9.5945 7.0002 9.59414C6.53301 9.59414 6.09395 9.41133 5.7627 9.08164C5.59992 8.91933 5.47084 8.72644 5.38289 8.51406C5.29494 8.30168 5.24984 8.07401 5.2502 7.84414C5.2502 7.37695 5.43301 6.93789 5.7627 6.60664C6.09395 6.27539 6.53301 6.09414 7.0002 6.09414C7.46739 6.09414 7.90645 6.27539 8.2377 6.60664C8.40047 6.76895 8.52955 6.96184 8.61751 7.17422C8.70546 7.3866 8.75056 7.61427 8.7502 7.84414C8.7502 8.31133 8.56739 8.75039 8.2377 9.08164Z" fill="#909296"/>
</svg>
