<svg width="14" height="8" viewBox="0 0 14 8" fill="none" xmlns="http://www.w3.org/2000/svg">
<path d="M0.635987 7.70721C0.823514 7.89468 1.07782 8 1.34299 8C1.60815 8 1.86246 7.89468 2.04998 7.70721L6.99997 2.75721L11.95 7.70721C12.1386 7.88937 12.3912 7.99017 12.6534 7.98789C12.9156 7.98561 13.1664 7.88044 13.3518 7.69503C13.5372 7.50962 13.6424 7.25881 13.6446 6.99661C13.6469 6.73442 13.5461 6.48182 13.364 6.29321L7.70697 0.636213C7.51945 0.448742 7.26514 0.343427 6.99997 0.343427C6.73481 0.343427 6.4805 0.448742 6.29298 0.636213L0.635987 6.29321C0.448516 6.48074 0.343201 6.73505 0.343201 7.00021C0.343201 7.26538 0.448516 7.51969 0.635987 7.70721V7.70721Z" fill="#72787F"/>
</svg>
