<svg width="20" height="20" viewBox="0 0 20 20" fill="none" xmlns="http://www.w3.org/2000/svg">
<path d="M18.4863 9.86375L10.4414 1.82469C10.3835 1.76665 10.3147 1.72061 10.2389 1.68919C10.1632 1.65777 10.082 1.6416 9.99999 1.6416C9.91799 1.6416 9.8368 1.65777 9.76106 1.68919C9.68532 1.72061 9.61651 1.76665 9.55859 1.82469L1.51367 9.86375C1.2793 10.0981 1.14648 10.4165 1.14648 10.7485C1.14648 11.438 1.70703 11.9985 2.39648 11.9985H3.24414V17.7348C3.24414 18.0806 3.52344 18.3598 3.86914 18.3598H8.74999V13.9848H10.9375V18.3598H16.1308C16.4766 18.3598 16.7558 18.0806 16.7558 17.7348V11.9985H17.6035C17.9355 11.9985 18.2539 11.8677 18.4883 11.6313C18.9746 11.1431 18.9746 10.352 18.4863 9.86375Z" fill="#909296"/>
</svg>
