<svg width="18" height="18" viewBox="0 0 18 18" fill="none" xmlns="http://www.w3.org/2000/svg">
<path d="M8.99175 0.666504C4.39175 0.666504 0.666748 4.39984 0.666748 8.99984C0.666748 13.5998 4.39175 17.3332 8.99175 17.3332C13.6001 17.3332 17.3334 13.5998 17.3334 8.99984C17.3334 4.39984 13.6001 0.666504 8.99175 0.666504ZM9.00008 15.6665C5.31675 15.6665 2.33341 12.6832 2.33341 8.99984C2.33341 5.3165 5.31675 2.33317 9.00008 2.33317C12.6834 2.33317 15.6667 5.3165 15.6667 8.99984C15.6667 12.6832 12.6834 15.6665 9.00008 15.6665ZM8.81675 4.83317H8.76675C8.43341 4.83317 8.16675 5.09984 8.16675 5.43317V9.3665C8.16675 9.65817 8.31675 9.93317 8.57508 10.0832L12.0334 12.1582C12.3167 12.3248 12.6834 12.2415 12.8501 11.9582C12.8919 11.8907 12.9198 11.8155 12.9319 11.737C12.9441 11.6586 12.9404 11.5785 12.9209 11.5015C12.9015 11.4245 12.8667 11.3522 12.8188 11.2889C12.7708 11.2257 12.7106 11.1727 12.6417 11.1332L9.41675 9.2165V5.43317C9.41675 5.09984 9.15008 4.83317 8.81675 4.83317Z" fill="#72787F"/>
</svg>
