<svg width="10" height="5" viewBox="0 0 10 5" fill="none" xmlns="http://www.w3.org/2000/svg">
<path d="M1.02259 0.307992C1.1398 0.190822 1.29874 0.125 1.46446 0.125C1.63019 0.125 1.78913 0.190822 1.90634 0.307992L5.00008 3.40174L8.09383 0.307992C8.2117 0.194143 8.36958 0.131146 8.53345 0.13257C8.69733 0.133994 8.85408 0.199725 8.96996 0.315605C9.08584 0.431485 9.15157 0.588243 9.153 0.752116C9.15442 0.915989 9.09142 1.07386 8.97758 1.19174L5.44196 4.72737C5.32475 4.84454 5.16581 4.91036 5.00008 4.91036C4.83436 4.91036 4.67541 4.84454 4.55821 4.72737L1.02259 1.19174C0.905422 1.07454 0.8396 0.915594 0.8396 0.749866C0.8396 0.584139 0.905422 0.425196 1.02259 0.307992Z" fill="#545454"/>
</svg>
