<svg width="18" height="16" viewBox="0 0 18 16" fill="none" xmlns="http://www.w3.org/2000/svg">
<path d="M4.72753 12.2735C3.19003 11.1818 1.97336 9.76185 1.28586 8.86518C1.09361 8.61766 0.989258 8.31318 0.989258 7.99977C0.989258 7.68636 1.09361 7.38187 1.28586 7.13435C2.53003 5.51018 5.51503 2.16602 9.00003 2.16602C10.5634 2.16602 12.025 2.83852 13.275 3.72768" stroke="#909296" stroke-width="1.5" stroke-linecap="round" stroke-linejoin="round"/>
<path d="M7.33325 13.5863C7.87426 13.7474 8.43546 13.8304 8.99992 13.833C12.4849 13.833 15.4699 10.4888 16.7141 8.86467C16.9063 8.61693 17.0105 8.31225 17.0104 7.9987C17.0102 7.68514 16.9057 7.38056 16.7133 7.13301C16.276 6.56258 15.8069 6.01727 15.3083 5.49967M10.7749 6.23884C10.5435 6.00356 10.2678 5.81643 9.96368 5.68825C9.65957 5.56006 9.3331 5.49335 9.00308 5.49197C8.67307 5.49058 8.34604 5.55455 8.04088 5.68019C7.73571 5.80583 7.45844 5.99064 7.22505 6.22397C6.99167 6.4573 6.80679 6.73453 6.68108 7.03967C6.55537 7.34481 6.49132 7.67181 6.49263 8.00183C6.49393 8.33184 6.56057 8.65833 6.68868 8.96247C6.8168 9.2666 7.00386 9.54236 7.23909 9.77384L10.7749 6.23884ZM2.33325 14.6663L15.6666 1.33301L2.33325 14.6663Z" stroke="#909296" stroke-width="1.5" stroke-linecap="round" stroke-linejoin="round"/>
</svg>
