<svg width="28" height="28" viewBox="0 0 28 28" fill="none" xmlns="http://www.w3.org/2000/svg">
<mask id="mask0_271_3333" style="mask-type:alpha" maskUnits="userSpaceOnUse" x="0" y="0" width="28" height="28">
<rect x="0.5" y="0.5" width="27" height="27" rx="13.5" fill="#C9CDD2" stroke="black"/>
</mask>
<g mask="url(#mask0_271_3333)">
</g>
<g clip-path="url(#clip0_271_3333)">
<path d="M21.4618 2.15524C19.2704 0.796895 16.7529 0 14 0V2.15524H21.4618Z" fill="#ED4C5C"/>
<path d="M14 4.29196H24.088C23.2911 3.49506 22.4036 2.7525 21.4799 2.13672H14V4.29196Z" fill="white"/>
<path d="M14 6.44723H25.8085C25.3014 5.65034 24.74 4.96211 24.1242 4.29199H14V6.44723Z" fill="#ED4C5C"/>
<path d="M14 8.58493H26.9314C26.6054 7.84237 26.2251 7.0998 25.8085 6.42969H14V8.58493Z" fill="white"/>
<path d="M14 10.7402H27.6197C27.4386 9.99764 27.2031 9.2913 26.9133 8.58496H14V10.7402Z" fill="#ED4C5C"/>
<path d="M14 12.9316H27.9457C27.8913 12.189 27.7646 11.4827 27.6197 10.7764H14V12.9316Z" fill="white"/>
<path d="M27.9638 12.9316H14.0181V14.0002H0C0 14.3805 0 14.7065 0.0543338 15.0688H27.9638C28.0181 14.6884 28.0181 14.3624 28.0181 14.0002C28 13.6199 28 13.2576 27.9638 12.9316Z" fill="#ED4C5C"/>
<path d="M0.380446 17.2236H27.6379C27.819 16.5173 27.9096 15.829 27.9639 15.0684H0.0544434C0.0906659 15.7747 0.181222 16.5173 0.380446 17.2236Z" fill="white"/>
<path d="M1.0686 19.3613H26.9315C27.2031 18.655 27.4386 17.9667 27.6378 17.2061H0.380371C0.561484 17.9667 0.79693 18.6731 1.0686 19.3613Z" fill="#ED4C5C"/>
<path d="M2.1915 21.5166H25.8086C26.2251 20.8102 26.6055 20.122 26.9315 19.3613H1.0686C1.39461 20.122 1.77494 20.8102 2.1915 21.5166Z" fill="white"/>
<path d="M3.87575 23.6533H24.1241C24.7218 23.0013 25.3376 22.2587 25.8085 21.498H2.19141C2.6623 22.3131 3.25997 23.0013 3.87575 23.6533Z" fill="#ED4C5C"/>
<path d="M6.48375 25.8086H21.5161C22.4941 25.2109 23.3272 24.4502 24.1241 23.6533H3.87573C4.67263 24.5045 5.56008 25.1928 6.48375 25.8086Z" fill="white"/>
<path d="M14.0001 28.0001C16.753 28.0001 19.3248 27.2032 21.5162 25.8086H6.48389C8.67535 27.2032 11.2471 28.0001 14.0001 28.0001Z" fill="#ED4C5C"/>
<path d="M6.53816 2.15524C5.56015 2.75291 4.6727 3.51358 3.87581 4.31048C3.2238 4.96248 2.66235 5.70505 2.19146 6.46572C1.7749 7.17206 1.35834 7.86028 1.06856 8.62096C0.796895 9.3273 0.561449 10.0155 0.362225 10.7762C0.181113 11.4282 0.0905563 12.1345 0.0543338 12.8771C0 13.2574 0 13.6197 0 14H14V0C11.2471 0 8.72962 0.796895 6.53816 2.15524Z" fill="#428BC1"/>
<path d="M10.7399 0.470703L10.9754 1.17704H11.6817L11.1022 1.62982L11.2833 2.33616L10.7218 1.9196L10.1604 2.33616L10.3415 1.62982L9.78003 1.15893H10.5045L10.7399 0.470703Z" fill="white"/>
<path d="M12.6054 3.25977L12.8408 3.9661H13.5471L12.9857 4.437L13.1668 5.14334L12.6054 4.70867L12.0439 5.12522L12.225 4.41889L11.6636 3.94799H12.3699L12.6054 3.25977Z" fill="white"/>
<path d="M8.8744 3.25977L9.10985 3.9661H9.81619L9.23663 4.437L9.41774 5.14334L8.8744 4.70867L8.31295 5.12522L8.49407 4.41889L7.93262 3.94799H8.63896L8.8744 3.25977Z" fill="white"/>
<path d="M10.7399 6.06738L10.9753 6.77372H11.6817L11.1202 7.24461L11.3013 7.95095L10.7399 7.53439L10.1784 7.95095L10.3595 7.24461L9.7981 6.77372H10.5044L10.7399 6.06738Z" fill="white"/>
<path d="M7.00917 6.06738L7.24461 6.77372H7.95095L7.3895 7.24461L7.57062 7.95095L7.00917 7.53439L6.44772 7.95095L6.62883 7.24461L6.06738 6.77372H6.77372L7.00917 6.06738Z" fill="white"/>
<path d="M3.26014 6.06738L3.49559 6.77372H4.20193L3.64048 7.24461L3.82159 7.95095L3.26014 7.51628L2.6987 7.93284L2.87981 7.2265L2.31836 6.75561H3.0247L3.26014 6.06738Z" fill="white"/>
<path d="M12.6054 8.875L12.8408 9.58134H13.5471L12.9857 10.0522L13.1668 10.7586L12.6054 10.342L12.0439 10.7586L12.225 10.0522L11.6636 9.58134H12.3699L12.6054 8.875Z" fill="white"/>
<path d="M8.8744 8.875L9.10985 9.58134H9.81619L9.23663 10.0341L9.41774 10.7405L8.8744 10.3058L8.31295 10.7223L8.49407 10.016L7.93262 9.54512H8.63896L8.8744 8.875Z" fill="white"/>
<path d="M5.12538 8.875L5.36083 9.58134H6.06716L5.50572 10.0522L5.68683 10.7586L5.12538 10.342L4.56393 10.7586L4.74504 10.0522L4.18359 9.58134H4.88993L5.12538 8.875Z" fill="white"/>
<path d="M10.7399 11.6641L10.9753 12.3704H11.6817L11.1202 12.8413L11.3013 13.5476L10.7399 13.1311L10.1784 13.5476L10.3595 12.8413L9.7981 12.3704H10.5044L10.7399 11.6641Z" fill="white"/>
<path d="M7.00917 11.6641L7.24461 12.3704H7.95095L7.3895 12.8413L7.57062 13.5476L7.00917 13.1311L6.44772 13.5476L6.62883 12.8413L6.06738 12.3704H6.77372L7.00917 11.6641Z" fill="white"/>
<path d="M3.26014 11.6641L3.49559 12.3704H4.20193L3.64048 12.8413L3.82159 13.5476L3.26014 13.113L2.6987 13.5295L2.87981 12.8232L2.31836 12.3523H3.0247L3.26014 11.6641Z" fill="white"/>
<path d="M4.58211 5.12576L5.14355 4.7092L5.705 5.12576L5.46956 4.41942L6.03101 3.94853H5.32467L5.14355 3.24219L4.90811 3.94853H4.2561L4.81755 4.36509L4.58211 5.12576Z" fill="white"/>
<path d="M0.833212 10.7405L1.39466 10.3239L1.95611 10.7405L1.72066 10.0341L2.28211 9.56323H1.63011L1.39466 8.875L1.15921 9.58134H0.706433C0.706433 9.63567 0.6521 9.6719 0.6521 9.72623L1.03244 9.9979L0.833212 10.7405Z" fill="white"/>
</g>
<rect x="0.5" y="0.5" width="27" height="27" rx="13.5" stroke="#B1B7BD"/>
<defs>
<clipPath id="clip0_271_3333">
<rect width="28" height="28" fill="white"/>
</clipPath>
</defs>
</svg>
