<svg width="50" height="50" viewBox="0 0 50 50" fill="none" xmlns="http://www.w3.org/2000/svg">
<rect width="50" height="50" rx="25" fill="white"/>
<path d="M36.4545 19.9077C37.1296 19.9077 37.7771 20.1759 38.2545 20.6533C38.7318 21.1306 39 21.7781 39 22.4532V27.5441C39 28.2192 38.7318 28.8666 38.2545 29.344C37.7771 29.8214 37.1296 30.0895 36.4545 30.0895H35.1029C34.7926 32.5501 33.5951 34.8129 31.735 36.4532C29.8748 38.0935 27.48 38.9986 25 38.9986V36.4532C27.0253 36.4532 28.9676 35.6486 30.3997 34.2165C31.8318 32.7844 32.6364 30.8421 32.6364 28.8168V21.1804C32.6364 19.1552 31.8318 17.2128 30.3997 15.7807C28.9676 14.3486 27.0253 13.5441 25 13.5441C22.9747 13.5441 21.0324 14.3486 19.6003 15.7807C18.1682 17.2128 17.3636 19.1552 17.3636 21.1804V30.0895H13.5455C12.8704 30.0895 12.2229 29.8214 11.7455 29.344C11.2682 28.8666 11 28.2192 11 27.5441V22.4532C11 21.7781 11.2682 21.1306 11.7455 20.6533C12.2229 20.1759 12.8704 19.9077 13.5455 19.9077H14.8971C15.2077 17.4474 16.4054 15.185 18.2655 13.5449C20.1255 11.9049 22.5202 11 25 11C27.4798 11 29.8745 11.9049 31.7345 13.5449C33.5946 15.185 34.7923 17.4474 35.1029 19.9077H36.4545ZM19.6036 29.8159L20.9527 27.6574C22.1657 28.4172 23.5686 28.8191 25 28.8168C26.4314 28.8191 27.8343 28.4172 29.0473 27.6574L30.3964 29.8159C28.7791 30.8292 26.9085 31.3652 25 31.3623C23.0915 31.3652 21.2209 30.8292 19.6036 29.8159Z" fill="#FF6359"/>
</svg>
