<svg width="20" height="20" viewBox="0 0 20 20" fill="none" xmlns="http://www.w3.org/2000/svg">
<circle cx="10" cy="10" r="10" fill="#FF8E8E"/>
<path d="M11.4561 13.6738L14.0742 15.752L12.96 16.7295L10.3896 14.6719L11.4561 13.6738ZM14.0947 9.75V10.2969C14.0947 11.0488 13.9967 11.7233 13.8008 12.3203C13.6048 12.9173 13.3245 13.4255 12.96 13.8447C12.5954 14.264 12.1602 14.5853 11.6543 14.8086C11.1484 15.0273 10.5879 15.1367 9.97266 15.1367C9.36198 15.1367 8.80371 15.0273 8.29785 14.8086C7.79655 14.5853 7.36133 14.264 6.99219 13.8447C6.62305 13.4255 6.33594 12.9173 6.13086 12.3203C5.93034 11.7233 5.83008 11.0488 5.83008 10.2969V9.75C5.83008 8.99805 5.93034 8.32585 6.13086 7.7334C6.33138 7.13639 6.61393 6.62826 6.97852 6.20898C7.34766 5.78516 7.78288 5.46387 8.28418 5.24512C8.79004 5.02181 9.34831 4.91016 9.95898 4.91016C10.5742 4.91016 11.1348 5.02181 11.6406 5.24512C12.151 5.46387 12.5885 5.78516 12.9531 6.20898C13.3177 6.62826 13.598 7.13639 13.7939 7.7334C13.9945 8.32585 14.0947 8.99805 14.0947 9.75ZM12.3721 10.2969V9.73633C12.3721 9.18034 12.3174 8.69043 12.208 8.2666C12.1032 7.83822 11.946 7.48047 11.7363 7.19336C11.5312 6.90169 11.2783 6.68294 10.9775 6.53711C10.6813 6.38672 10.3418 6.31152 9.95898 6.31152C9.58529 6.31152 9.25033 6.38672 8.9541 6.53711C8.65788 6.68294 8.40495 6.90169 8.19531 7.19336C7.98568 7.48047 7.82617 7.83822 7.7168 8.2666C7.60742 8.69043 7.55273 9.18034 7.55273 9.73633V10.2969C7.55273 10.8529 7.60742 11.3451 7.7168 11.7734C7.82617 12.2018 7.98568 12.5641 8.19531 12.8604C8.40951 13.152 8.66471 13.373 8.96094 13.5234C9.26172 13.6693 9.59896 13.7422 9.97266 13.7422C10.3555 13.7422 10.695 13.6693 10.9912 13.5234C11.2874 13.373 11.5381 13.152 11.7432 12.8604C11.9482 12.5641 12.1032 12.2018 12.208 11.7734C12.3174 11.3451 12.3721 10.8529 12.3721 10.2969Z" fill="white"/>
</svg>
