<svg width="18" height="14" viewBox="0 0 18 14" fill="none" xmlns="http://www.w3.org/2000/svg">
<path d="M16.7142 6.13533C17.1092 6.65199 17.1092 7.34949 16.7142 7.86533C15.47 9.48949 12.485 12.8337 9 12.8337C5.515 12.8337 2.53 9.48949 1.28584 7.86533C1.09366 7.61794 0.989334 7.31359 0.989334 7.00033C0.989334 6.68706 1.09366 6.38272 1.28584 6.13533C2.53 4.51116 5.515 1.16699 9 1.16699C12.485 1.16699 15.47 4.51116 16.7142 6.13533V6.13533Z" stroke="#909296" stroke-width="1.5" stroke-linecap="round" stroke-linejoin="round"/>
<path d="M9 9.5C10.3807 9.5 11.5 8.38071 11.5 7C11.5 5.61929 10.3807 4.5 9 4.5C7.61929 4.5 6.5 5.61929 6.5 7C6.5 8.38071 7.61929 9.5 9 9.5Z" stroke="#909296" stroke-width="1.5" stroke-linecap="round" stroke-linejoin="round"/>
</svg>
