<svg width="20" height="20" viewBox="0 0 20 20" fill="none" xmlns="http://www.w3.org/2000/svg">
<mask id="mask0_279_3240" style="mask-type:alpha" maskUnits="userSpaceOnUse" x="1" y="1" width="18" height="18">
<path d="M15 13.3337C15.8841 13.3337 16.7319 12.9825 17.357 12.3573C17.9821 11.7322 18.3333 10.8844 18.3333 10.0003C18.3333 9.11627 17.9821 8.26842 17.357 7.6433C16.7319 7.01818 15.8841 6.66699 15 6.66699" fill="white"/>
<path d="M15 13.3337C15.8841 13.3337 16.7319 12.9825 17.357 12.3573C17.9821 11.7322 18.3333 10.8844 18.3333 10.0003C18.3333 9.11627 17.9821 8.26842 17.357 7.6433C16.7319 7.01818 15.8841 6.66699 15 6.66699" stroke="white" stroke-linejoin="round"/>
<path d="M4.99999 6.66699C4.11593 6.66699 3.26809 7.01818 2.64297 7.6433C2.01785 8.26842 1.66666 9.11627 1.66666 10.0003C1.66666 10.8844 2.01785 11.7322 2.64297 12.3573C3.26809 12.9825 4.11593 13.3337 4.99999 13.3337" fill="white"/>
<path d="M4.99999 6.66699C4.11593 6.66699 3.26809 7.01818 2.64297 7.6433C2.01785 8.26842 1.66666 9.11627 1.66666 10.0003C1.66666 10.8844 2.01785 11.7322 2.64297 12.3573C3.26809 12.9825 4.11593 13.3337 4.99999 13.3337" stroke="white" stroke-linejoin="round"/>
<path d="M5 13.3337V6.66699C5 3.90574 7.23875 1.66699 10 1.66699C12.7612 1.66699 15 3.90574 15 6.66699V13.3337C15 16.0949 12.7612 18.3337 10 18.3337" stroke="white" stroke-linecap="round" stroke-linejoin="round"/>
</mask>
<g mask="url(#mask0_279_3240)">
<path d="M0 0H20V20H0V0Z" fill="#454C53"/>
</g>
</svg>
