<svg width="24" height="24" viewBox="0 0 24 24" fill="none" xmlns="http://www.w3.org/2000/svg">
<path d="M13.7011 5.62907C14.0949 5.24186 14.1003 4.60872 13.7131 4.21491C13.3258 3.8211 12.6927 3.81575 12.2989 4.20296L13.7011 5.62907ZM6 11.7987L5.29889 11.0856L4.54633 11.8256L5.32574 12.5372L6 11.7987ZM12.3257 18.9283C12.7336 19.3006 13.3661 19.2719 13.7385 18.864C14.1109 18.4562 14.0821 17.8236 13.6743 17.4513L12.3257 18.9283ZM12.2989 4.20296L5.29889 11.0856L6.70111 12.5118L13.7011 5.62907L12.2989 4.20296ZM5.32574 12.5372L12.3257 18.9283L13.6743 17.4513L6.67426 11.0602L5.32574 12.5372Z" fill="#72787F"/>
<path d="M18.7011 5.62907C19.0949 5.24186 19.1003 4.60872 18.7131 4.21491C18.3258 3.8211 17.6927 3.81575 17.2989 4.20296L18.7011 5.62907ZM11 11.7987L10.2989 11.0856L9.54633 11.8256L10.3257 12.5372L11 11.7987ZM17.3257 18.9283C17.7336 19.3006 18.3661 19.2719 18.7385 18.864C19.1109 18.4562 19.0821 17.8236 18.6743 17.4513L17.3257 18.9283ZM17.2989 4.20296L10.2989 11.0856L11.7011 12.5118L18.7011 5.62907L17.2989 4.20296ZM10.3257 12.5372L17.3257 18.9283L18.6743 17.4513L11.6743 11.0602L10.3257 12.5372Z" fill="#72787F"/>
</svg>
