<svg width="20" height="20" viewBox="0 0 20 20" fill="none" xmlns="http://www.w3.org/2000/svg">
<path fill-rule="evenodd" clip-rule="evenodd" d="M13.4375 5.03906V5.97656C13.4375 6.0625 13.3672 6.13281 13.2812 6.13281H5.78125C5.69531 6.13281 5.625 6.0625 5.625 5.97656V5.03906C5.625 4.95312 5.69531 4.88281 5.78125 4.88281H13.2812C13.3672 4.88281 13.4375 4.95312 13.4375 5.03906ZM5.625 7.85156C5.625 7.76562 5.69531 7.69531 5.78125 7.69531H9.375C9.46094 7.69531 9.53125 7.76562 9.53125 7.85156V8.78906C9.53125 8.875 9.46094 8.94531 9.375 8.94531H5.78125C5.69531 8.94531 5.625 8.875 5.625 8.78906V7.85156ZM4.0625 16.6406H9.375C9.46094 16.6406 9.53125 16.7109 9.53125 16.7969V17.8906C9.53125 17.9766 9.46094 18.0469 9.375 18.0469H3.28125C2.93555 18.0469 2.65625 17.7676 2.65625 17.4219V2.10938C2.65625 1.76367 2.93555 1.48438 3.28125 1.48438H15.7812C16.127 1.48438 16.4062 1.76367 16.4062 2.10938V8.67188C16.4062 8.75781 16.3359 8.82812 16.25 8.82812H15.1562C15.0703 8.82812 15 8.75781 15 8.67188V2.89062H4.0625V16.6406ZM13.4883 9.07227L17.2383 10.375C17.3008 10.3965 17.3438 10.4551 17.3438 10.5215V15.4258C17.3438 15.4746 17.3203 15.5195 17.2832 15.5488L13.5332 18.4824C13.5059 18.5039 13.4707 18.5156 13.4375 18.5156C13.4043 18.5156 13.3691 18.5039 13.3418 18.4824L9.5918 15.5488C9.55273 15.5195 9.53125 15.4746 9.53125 15.4258V10.5215C9.5314 10.4891 9.54164 10.4576 9.56055 10.4314C9.57945 10.4051 9.60608 10.3854 9.63672 10.375L13.3867 9.07227C13.4023 9.06641 13.4199 9.06445 13.4375 9.06445C13.4551 9.06445 13.4707 9.06641 13.4883 9.07227ZM13.4375 17.0234L16.1328 14.916V11.2695L13.4375 10.332L10.7422 11.2695V14.916L13.4375 17.0234Z" fill="#454C53"/>
<path d="M4.0625 16.6406H3.9625V16.7406H4.0625V16.6406ZM15 2.89062H15.1V2.79062H15V2.89062ZM4.0625 2.89062V2.79062H3.9625V2.89062H4.0625ZM17.2383 10.375L17.2055 10.4695L17.2058 10.4696L17.2383 10.375ZM13.4883 9.07227L13.5211 8.9778L13.5199 8.9774L13.4883 9.07227ZM17.2832 15.5488L17.3448 15.6276L17.3452 15.6273L17.2832 15.5488ZM13.5332 18.4824L13.4716 18.4037L13.4714 18.4038L13.5332 18.4824ZM13.3418 18.4824L13.4036 18.4038L13.4034 18.4037L13.3418 18.4824ZM9.5918 15.5488L9.65342 15.47L9.6518 15.4688L9.5918 15.5488ZM9.53125 10.5215L9.43125 10.521V10.5215H9.53125ZM9.56055 10.4314L9.4794 10.3729L9.47939 10.3729L9.56055 10.4314ZM9.63672 10.375L9.66888 10.4697L9.66953 10.4695L9.63672 10.375ZM13.3867 9.07227L13.4195 9.16676L13.4218 9.1659L13.3867 9.07227ZM16.1328 14.916L16.1944 14.9948L16.2328 14.9648V14.916H16.1328ZM13.4375 17.0234L13.3759 17.1022L13.4375 17.1504L13.4991 17.1022L13.4375 17.0234ZM16.1328 11.2695H16.2328V11.1984L16.1657 11.1751L16.1328 11.2695ZM13.4375 10.332L13.4704 10.2376L13.4375 10.2262L13.4046 10.2376L13.4375 10.332ZM10.7422 11.2695L10.7093 11.1751L10.6422 11.1984V11.2695H10.7422ZM10.7422 14.916H10.6422V14.9648L10.6806 14.9948L10.7422 14.916ZM13.5375 5.97656V5.03906H13.3375V5.97656H13.5375ZM13.2812 6.23281C13.4224 6.23281 13.5375 6.11773 13.5375 5.97656H13.3375C13.3375 6.00727 13.312 6.03281 13.2812 6.03281V6.23281ZM5.78125 6.23281H13.2812V6.03281H5.78125V6.23281ZM5.525 5.97656C5.525 6.11773 5.64008 6.23281 5.78125 6.23281V6.03281C5.75054 6.03281 5.725 6.00727 5.725 5.97656H5.525ZM5.525 5.03906V5.97656H5.725V5.03906H5.525ZM5.78125 4.78281C5.64008 4.78281 5.525 4.8979 5.525 5.03906H5.725C5.725 5.00835 5.75054 4.98281 5.78125 4.98281V4.78281ZM13.2812 4.78281H5.78125V4.98281H13.2812V4.78281ZM13.5375 5.03906C13.5375 4.8979 13.4224 4.78281 13.2812 4.78281V4.98281C13.312 4.98281 13.3375 5.00835 13.3375 5.03906H13.5375ZM5.78125 7.59531C5.64008 7.59531 5.525 7.7104 5.525 7.85156H5.725C5.725 7.82085 5.75054 7.79531 5.78125 7.79531V7.59531ZM9.375 7.59531H5.78125V7.79531H9.375V7.59531ZM9.63125 7.85156C9.63125 7.7104 9.51617 7.59531 9.375 7.59531V7.79531C9.40571 7.79531 9.43125 7.82085 9.43125 7.85156H9.63125ZM9.63125 8.78906V7.85156H9.43125V8.78906H9.63125ZM9.375 9.04531C9.51617 9.04531 9.63125 8.93023 9.63125 8.78906H9.43125C9.43125 8.81977 9.40571 8.84531 9.375 8.84531V9.04531ZM5.78125 9.04531H9.375V8.84531H5.78125V9.04531ZM5.525 8.78906C5.525 8.93023 5.64008 9.04531 5.78125 9.04531V8.84531C5.75054 8.84531 5.725 8.81977 5.725 8.78906H5.525ZM5.525 7.85156V8.78906H5.725V7.85156H5.525ZM9.375 16.5406H4.0625V16.7406H9.375V16.5406ZM9.63125 16.7969C9.63125 16.6557 9.51617 16.5406 9.375 16.5406V16.7406C9.40571 16.7406 9.43125 16.7662 9.43125 16.7969H9.63125ZM9.63125 17.8906V16.7969H9.43125V17.8906H9.63125ZM9.375 18.1469C9.51617 18.1469 9.63125 18.0318 9.63125 17.8906H9.43125C9.43125 17.9213 9.40571 17.9469 9.375 17.9469V18.1469ZM3.28125 18.1469H9.375V17.9469H3.28125V18.1469ZM2.55625 17.4219C2.55625 17.8228 2.88032 18.1469 3.28125 18.1469V17.9469C2.99078 17.9469 2.75625 17.7123 2.75625 17.4219H2.55625ZM2.55625 2.10938V17.4219H2.75625V2.10938H2.55625ZM3.28125 1.38437C2.88032 1.38437 2.55625 1.70844 2.55625 2.10938H2.75625C2.75625 1.8189 2.99078 1.58438 3.28125 1.58438V1.38437ZM15.7812 1.38437H3.28125V1.58438H15.7812V1.38437ZM16.5063 2.10938C16.5063 1.70844 16.1822 1.38437 15.7812 1.38437V1.58438C16.0717 1.58438 16.3062 1.8189 16.3062 2.10938H16.5063ZM16.5063 8.67188V2.10938H16.3062V8.67188H16.5063ZM16.25 8.92812C16.3912 8.92812 16.5063 8.81304 16.5063 8.67188H16.3062C16.3062 8.70258 16.2807 8.72813 16.25 8.72813V8.92812ZM15.1562 8.92812H16.25V8.72813H15.1562V8.92812ZM14.9 8.67188C14.9 8.81304 15.0151 8.92812 15.1562 8.92812V8.72813C15.1255 8.72813 15.1 8.70258 15.1 8.67188H14.9ZM14.9 2.89062V8.67188H15.1V2.89062H14.9ZM4.0625 2.99063H15V2.79062H4.0625V2.99063ZM4.1625 16.6406V2.89062H3.9625V16.6406H4.1625ZM17.2711 10.2805L13.5211 8.9778L13.4555 9.16673L17.2055 10.4695L17.2711 10.2805ZM17.4438 10.5215C17.4438 10.4113 17.3726 10.3154 17.2708 10.2804L17.2058 10.4696C17.2289 10.4775 17.2437 10.4989 17.2437 10.5215H17.4438ZM17.4438 15.4258V10.5215H17.2437V15.4258H17.4438ZM17.3452 15.6273C17.4048 15.5802 17.4438 15.507 17.4438 15.4258H17.2437C17.2437 15.4422 17.2358 15.4589 17.2212 15.4703L17.3452 15.6273ZM13.5948 18.5612L17.3448 15.6276L17.2216 15.4701L13.4716 18.4037L13.5948 18.5612ZM13.4375 18.6156C13.4928 18.6156 13.5498 18.5966 13.595 18.5611L13.4714 18.4038C13.462 18.4112 13.4486 18.4156 13.4375 18.4156V18.6156ZM13.28 18.5611C13.3252 18.5966 13.3822 18.6156 13.4375 18.6156V18.4156C13.4264 18.4156 13.413 18.4112 13.4036 18.4038L13.28 18.5611ZM9.53018 15.6276L13.2802 18.5612L13.4034 18.4037L9.65341 15.4701L9.53018 15.6276ZM9.43125 15.4258C9.43125 15.5047 9.46645 15.5798 9.5318 15.6288L9.6518 15.4688C9.63902 15.4592 9.63125 15.4445 9.63125 15.4258H9.43125ZM9.43125 10.5215V15.4258H9.63125V10.5215H9.43125ZM9.47939 10.3729C9.44833 10.4161 9.4315 10.4679 9.43125 10.521L9.63125 10.522C9.6313 10.5104 9.63496 10.4992 9.6417 10.4898L9.47939 10.3729ZM9.60456 10.2803C9.55422 10.2974 9.51046 10.3298 9.4794 10.3729L9.6417 10.4898C9.64845 10.4804 9.65795 10.4734 9.66888 10.4697L9.60456 10.2803ZM13.3539 8.9778L9.6039 10.2805L9.66953 10.4695L13.4195 9.16673L13.3539 8.9778ZM13.4375 8.96445C13.4135 8.96445 13.3827 8.96696 13.3516 8.97863L13.4218 9.1659C13.4216 9.16598 13.4227 9.16557 13.4255 9.16516C13.4284 9.16475 13.4323 9.16445 13.4375 9.16445V8.96445ZM13.5199 8.9774C13.4903 8.96753 13.4637 8.96445 13.4375 8.96445V9.16445C13.4464 9.16445 13.4511 9.16528 13.4567 9.16713L13.5199 8.9774ZM16.0712 14.8372L13.3759 16.9447L13.4991 17.1022L16.1944 14.9948L16.0712 14.8372ZM16.0328 11.2695V14.916H16.2328V11.2695H16.0328ZM13.4046 10.4265L16.1 11.364L16.1657 11.1751L13.4704 10.2376L13.4046 10.4265ZM10.775 11.364L13.4704 10.4265L13.4046 10.2376L10.7093 11.1751L10.775 11.364ZM10.8422 14.916V11.2695H10.6422V14.916H10.8422ZM13.4991 16.9447L10.8038 14.8372L10.6806 14.9948L13.3759 17.1022L13.4991 16.9447Z" fill="#454C53"/>
<path d="M12.5918 13.0703C12.5773 13.0502 12.5583 13.0338 12.5362 13.0226C12.5141 13.0114 12.4896 13.0057 12.4648 13.0059H11.6016C11.4746 13.0059 11.4004 13.1504 11.4746 13.2539L12.916 15.248C12.9785 15.334 13.1055 15.334 13.168 15.248L15.3984 12.1621C15.4727 12.0586 15.3984 11.9141 15.2715 11.9141H14.4063C14.3555 11.9141 14.3086 11.9375 14.2793 11.9785L13.0391 13.6934L12.5918 13.0703Z" fill="#454C53"/>
</svg>
