<svg width="50" height="50" viewBox="0 0 50 50" fill="none" xmlns="http://www.w3.org/2000/svg">
<rect width="50" height="50" rx="25" fill="white"/>
<path d="M25.6666 22.6667C25.6666 22.4015 25.7719 22.1472 25.9595 21.9596C26.147 21.7721 26.4014 21.6667 26.6666 21.6667H31.3333C31.5985 21.6667 31.8528 21.7721 32.0404 21.9596C32.2279 22.1472 32.3333 22.4015 32.3333 22.6667C32.3333 22.932 32.2279 23.1863 32.0404 23.3739C31.8528 23.5614 31.5985 23.6667 31.3333 23.6667H26.6666C26.4014 23.6667 26.147 23.5614 25.9595 23.3739C25.7719 23.1863 25.6666 22.932 25.6666 22.6667ZM26.6666 29.0001C26.4014 29.0001 26.147 29.1054 25.9595 29.293C25.7719 29.4805 25.6666 29.7349 25.6666 30.0001C25.6666 30.2653 25.7719 30.5197 25.9595 30.7072C26.147 30.8947 26.4014 31.0001 26.6666 31.0001H31.3333C31.5985 31.0001 31.8528 30.8947 32.0404 30.7072C32.2279 30.5197 32.3333 30.2653 32.3333 30.0001C32.3333 29.7349 32.2279 29.4805 32.0404 29.293C31.8528 29.1054 31.5985 29.0001 31.3333 29.0001H26.6666ZM23.3733 22.0401C23.4715 21.9485 23.5503 21.8381 23.605 21.7155C23.6596 21.5928 23.689 21.4604 23.6914 21.3261C23.6937 21.1918 23.669 21.0585 23.6187 20.934C23.5685 20.8094 23.4936 20.6963 23.3986 20.6014C23.3037 20.5064 23.1906 20.4315 23.066 20.3813C22.9415 20.331 22.8082 20.3063 22.6739 20.3086C22.5396 20.311 22.4072 20.3404 22.2845 20.395C22.1619 20.4497 22.0515 20.5285 21.9599 20.6267L19.9999 22.5867L19.3733 21.9601C19.1837 21.7834 18.933 21.6873 18.6739 21.6918C18.4148 21.6964 18.1676 21.8014 17.9844 21.9846C17.8012 22.1678 17.6963 22.415 17.6917 22.6741C17.6871 22.9331 17.7833 23.1838 17.9599 23.3734L19.2933 24.7067C19.4808 24.894 19.7349 24.9992 19.9999 24.9992C20.2649 24.9992 20.5191 24.894 20.7066 24.7067L23.3733 22.0401ZM23.3733 27.9601C23.5605 28.1476 23.6657 28.4017 23.6657 28.6667C23.6657 28.9317 23.5605 29.1859 23.3733 29.3734L20.7066 32.0401C20.5191 32.2274 20.2649 32.3325 19.9999 32.3325C19.7349 32.3325 19.4808 32.2274 19.2933 32.0401L17.9599 30.7067C17.8617 30.6152 17.7829 30.5048 17.7282 30.3821C17.6736 30.2595 17.6442 30.127 17.6418 29.9928C17.6394 29.8585 17.6641 29.7251 17.7144 29.6006C17.7647 29.4761 17.8396 29.363 17.9345 29.268C18.0295 29.1731 18.1426 29.0982 18.2671 29.0479C18.3916 28.9976 18.525 28.9729 18.6593 28.9753C18.7936 28.9777 18.926 29.0071 19.0486 29.0617C19.1713 29.1164 19.2817 29.1952 19.3733 29.2934L19.9999 29.9201L21.9599 27.9601C22.1474 27.7728 22.4016 27.6676 22.6666 27.6676C22.9316 27.6676 23.1858 27.7728 23.3733 27.9601ZM30.3253 14.4454C30.2694 13.6901 29.9299 12.9839 29.3749 12.4685C28.82 11.9531 28.0906 11.6667 27.3333 11.6667H22.6666C21.9287 11.6668 21.2166 11.9388 20.6666 12.4307C20.1166 12.9227 19.7672 13.6001 19.6853 14.3334H17.3333C16.5376 14.3334 15.7745 14.6495 15.2119 15.2121C14.6493 15.7747 14.3333 16.5378 14.3333 17.3334V35.3334C14.3333 36.1291 14.6493 36.8921 15.2119 37.4547C15.7745 38.0173 16.5376 38.3334 17.3333 38.3334H32.6666C33.0605 38.3334 33.4507 38.2558 33.8146 38.1051C34.1786 37.9543 34.5093 37.7333 34.7879 37.4547C35.0665 37.1762 35.2875 36.8454 35.4382 36.4815C35.589 36.1175 35.6666 35.7274 35.6666 35.3334V17.3334C35.6666 16.9394 35.589 16.5493 35.4382 16.1854C35.2875 15.8214 35.0665 15.4907 34.7879 15.2121C34.5093 14.9335 34.1786 14.7125 33.8146 14.5618C33.4507 14.411 33.0605 14.3334 32.6666 14.3334H30.3146L30.3253 14.4454ZM30.3253 14.4614L30.3333 14.6667C30.3333 14.5974 30.3306 14.5294 30.3266 14.4614H30.3253ZM22.6666 17.6667H27.3333C28.3733 17.6667 29.2893 17.1374 29.8279 16.3334H32.6666C32.9318 16.3334 33.1862 16.4388 33.3737 16.6263C33.5612 16.8138 33.6666 17.0682 33.6666 17.3334V35.3334C33.6666 35.5986 33.5612 35.853 33.3737 36.0405C33.1862 36.2281 32.9318 36.3334 32.6666 36.3334H17.3333C17.068 36.3334 16.8137 36.2281 16.6261 36.0405C16.4386 35.853 16.3333 35.5986 16.3333 35.3334V17.3334C16.3333 17.0682 16.4386 16.8138 16.6261 16.6263C16.8137 16.4388 17.068 16.3334 17.3333 16.3334H20.1719C20.7106 17.1374 21.6266 17.6667 22.6666 17.6667ZM22.6666 13.6667H27.3333C27.5985 13.6667 27.8528 13.7721 28.0404 13.9596C28.2279 14.1472 28.3333 14.4015 28.3333 14.6667C28.3333 14.932 28.2279 15.1863 28.0404 15.3739C27.8528 15.5614 27.5985 15.6667 27.3333 15.6667H22.6666C22.4014 15.6667 22.147 15.5614 21.9595 15.3739C21.7719 15.1863 21.6666 14.932 21.6666 14.6667C21.6666 14.4015 21.7719 14.1472 21.9595 13.9596C22.147 13.7721 22.4014 13.6667 22.6666 13.6667Z" fill="#FF6359"/>
</svg>
