<svg width="25" height="25" viewBox="0 0 25 25" fill="none" xmlns="http://www.w3.org/2000/svg">
<path d="M4.24665 20.7979L7.5351 19.7013L8.11065 19.9891C9.43288 20.6486 10.9029 21.0002 12.4444 21.0002C17.5933 21.0002 21.7778 16.9464 21.7778 12.4446C21.7778 7.94283 17.5933 3.88905 12.4444 3.88905C7.29554 3.88905 3.1111 7.94283 3.1111 12.4446C3.1111 14.1246 3.71776 15.8295 4.8331 17.2871L5.36976 17.9871L4.2451 20.7964L4.24665 20.7979ZM3.14688 22.8046C3.00611 22.8518 2.85478 22.8577 2.71078 22.8216C2.56677 22.7855 2.43609 22.709 2.33419 22.601C2.23228 22.4931 2.1634 22.3582 2.13568 22.2123C2.10796 22.0665 2.12257 21.9158 2.17776 21.7779L3.59643 18.2313C2.30221 16.5357 1.55554 14.5073 1.55554 12.4446C1.55554 7.2895 6.22221 2.3335 12.4444 2.3335C18.6667 2.3335 23.3333 7.2895 23.3333 12.4446C23.3333 17.5997 18.6667 22.5557 12.4444 22.5557C10.6994 22.5606 8.97726 22.1579 7.41532 21.3797L3.14688 22.8031V22.8046Z" fill="white" stroke="white" stroke-width="0.5"/>
<path d="M12.4444 13.1891C12.3467 13.1891 12.2499 13.1698 12.1595 13.1324C12.0692 13.095 11.9872 13.0402 11.918 12.971C11.8489 12.9019 11.7941 12.8198 11.7567 12.7295C11.7192 12.6392 11.7 12.5424 11.7 12.4446C11.7 12.3469 11.7192 12.2501 11.7567 12.1598C11.7941 12.0694 11.8489 11.9874 11.918 11.9182C11.9872 11.8491 12.0692 11.7943 12.1595 11.7569C12.2499 11.7195 12.3467 11.7002 12.4444 11.7002C12.6419 11.7002 12.8312 11.7786 12.9708 11.9182C13.1104 12.0578 13.1889 12.2472 13.1889 12.4446C13.1889 12.6421 13.1104 12.8314 12.9708 12.971C12.8312 13.1107 12.6419 13.1891 12.4444 13.1891ZM17.1111 13.1891C17.0133 13.1891 16.9165 13.1698 16.8262 13.1324C16.7359 13.095 16.6538 13.0402 16.5847 12.971C16.5156 12.9019 16.4607 12.8198 16.4233 12.7295C16.3859 12.6392 16.3667 12.5424 16.3667 12.4446C16.3667 12.3469 16.3859 12.2501 16.4233 12.1598C16.4607 12.0694 16.5156 11.9874 16.5847 11.9182C16.6538 11.8491 16.7359 11.7943 16.8262 11.7569C16.9165 11.7195 17.0133 11.7002 17.1111 11.7002C17.3085 11.7002 17.4979 11.7786 17.6375 11.9182C17.7771 12.0578 17.8555 12.2472 17.8555 12.4446C17.8555 12.6421 17.7771 12.8314 17.6375 12.971C17.4979 13.1107 17.3085 13.1891 17.1111 13.1891ZM7.77777 13.1891C7.68001 13.1891 7.58321 13.1698 7.49288 13.1324C7.40256 13.095 7.3205 13.0402 7.25137 12.971C7.18224 12.9019 7.1274 12.8198 7.08999 12.7295C7.05258 12.6392 7.03333 12.5424 7.03333 12.4446C7.03333 12.3469 7.05258 12.2501 7.08999 12.1598C7.1274 12.0694 7.18224 11.9874 7.25137 11.9182C7.3205 11.8491 7.40256 11.7943 7.49288 11.7569C7.5832 11.7195 7.68001 11.7002 7.77777 11.7002C7.97521 11.7002 8.16456 11.7786 8.30417 11.9182C8.44378 12.0578 8.52221 12.2472 8.52221 12.4446C8.52221 12.6421 8.44378 12.8314 8.30417 12.971C8.16456 13.1107 7.97521 13.1891 7.77777 13.1891Z" fill="white" stroke="white"/>
</svg>
