<svg width="7" height="12" viewBox="0 0 7 12" fill="none" xmlns="http://www.w3.org/2000/svg">
<path d="M1.33334 11.8331C1.13863 11.8335 0.949928 11.7657 0.800002 11.6415C0.71562 11.5715 0.645868 11.4856 0.594741 11.3886C0.543615 11.2917 0.512118 11.1856 0.502055 11.0764C0.491991 10.9673 0.50356 10.8572 0.536097 10.7526C0.568634 10.6479 0.6215 10.5507 0.691668 10.4665L4.425 5.99979L0.825002 1.52479C0.755781 1.43955 0.704087 1.34147 0.672894 1.23618C0.641701 1.1309 0.631623 1.02049 0.643239 0.911302C0.654855 0.802112 0.687936 0.696294 0.740581 0.59993C0.793225 0.503566 0.864396 0.418556 0.950002 0.349788C1.03622 0.273924 1.1372 0.216701 1.24658 0.18171C1.35597 0.146719 1.4714 0.134716 1.58565 0.146454C1.69989 0.158191 1.81048 0.193416 1.91046 0.249917C2.01045 0.306419 2.09767 0.382977 2.16667 0.474788L6.19167 5.47479C6.31424 5.6239 6.38124 5.81093 6.38124 6.00395C6.38124 6.19697 6.31424 6.38401 6.19167 6.53312L2.025 11.5331C1.9414 11.634 1.83521 11.7137 1.71503 11.7658C1.59486 11.8179 1.46409 11.841 1.33334 11.8331Z" fill="#72787F"/>
</svg>
