<svg width="24" height="24" viewBox="0 0 24 24" fill="none" xmlns="http://www.w3.org/2000/svg">
<path d="M4.29289 18.2929C3.90237 18.6834 3.90237 19.3166 4.29289 19.7071C4.68342 20.0976 5.31658 20.0976 5.70711 19.7071L4.29289 18.2929ZM12 12L12.7071 12.7071L13.4142 12L12.7071 11.2929L12 12ZM5.70711 4.29289C5.31658 3.90237 4.68342 3.90237 4.29289 4.29289C3.90237 4.68342 3.90237 5.31658 4.29289 5.70711L5.70711 4.29289ZM5.70711 19.7071L12.7071 12.7071L11.2929 11.2929L4.29289 18.2929L5.70711 19.7071ZM12.7071 11.2929L5.70711 4.29289L4.29289 5.70711L11.2929 12.7071L12.7071 11.2929Z" fill="#72787F"/>
<path d="M9.29289 18.2929C8.90237 18.6834 8.90237 19.3166 9.29289 19.7071C9.68342 20.0976 10.3166 20.0976 10.7071 19.7071L9.29289 18.2929ZM17 12L17.7071 12.7071L18.4142 12L17.7071 11.2929L17 12ZM10.7071 4.29289C10.3166 3.90237 9.68342 3.90237 9.29289 4.29289C8.90237 4.68342 8.90237 5.31658 9.29289 5.70711L10.7071 4.29289ZM10.7071 19.7071L17.7071 12.7071L16.2929 11.2929L9.29289 18.2929L10.7071 19.7071ZM17.7071 11.2929L10.7071 4.29289L9.29289 5.70711L16.2929 12.7071L17.7071 11.2929Z" fill="#72787F"/>
</svg>
