<svg width="16" height="16" viewBox="0 0 16 16" fill="none" xmlns="http://www.w3.org/2000/svg">
<path fill-rule="evenodd" clip-rule="evenodd" d="M7.99996 0.667969C3.94996 0.667969 0.666626 3.9513 0.666626 8.0013C0.666626 12.0513 3.94996 15.3346 7.99996 15.3346C12.05 15.3346 15.3333 12.0513 15.3333 8.0013C15.3333 3.9513 12.05 0.667969 7.99996 0.667969ZM5.33329 7.33464C5.15648 7.33464 4.98691 7.40487 4.86189 7.5299C4.73686 7.65492 4.66663 7.82449 4.66663 8.0013C4.66663 8.17811 4.73686 8.34768 4.86189 8.47271C4.98691 8.59773 5.15648 8.66797 5.33329 8.66797H10.6666C10.8434 8.66797 11.013 8.59773 11.138 8.47271C11.2631 8.34768 11.3333 8.17811 11.3333 8.0013C11.3333 7.82449 11.2631 7.65492 11.138 7.5299C11.013 7.40487 10.8434 7.33464 10.6666 7.33464H5.33329Z" fill="#FF776A"/>
</svg>
