<svg width="12" height="12" viewBox="0 0 12 12" fill="none" xmlns="http://www.w3.org/2000/svg">
<path d="M0.431252 0.430947C0.642221 0.220042 0.928318 0.101562 1.22663 0.101562C1.52494 0.101562 1.81103 0.220042 2.022 0.430947L6 4.40895L9.978 0.430947C10.1902 0.226019 10.4744 0.112626 10.7693 0.115189C11.0643 0.117752 11.3465 0.236067 11.555 0.444651C11.7636 0.653235 11.8819 0.9354 11.8845 1.23037C11.8871 1.52534 11.7737 1.80952 11.5688 2.0217L7.59075 5.9997L11.5688 9.9777C11.7737 10.1899 11.8871 10.4741 11.8845 10.769C11.8819 11.064 11.7636 11.3462 11.555 11.5547C11.3465 11.7633 11.0643 11.8816 10.7693 11.8842C10.4744 11.8868 10.1902 11.7734 9.978 11.5684L6 7.59045L2.022 11.5684C1.80983 11.7734 1.52565 11.8868 1.23068 11.8842C0.935705 11.8816 0.653541 11.7633 0.444957 11.5547C0.236372 11.3462 0.118057 11.064 0.115494 10.769C0.112931 10.4741 0.226324 10.1899 0.431252 9.9777L4.40925 5.9997L0.431252 2.0217C0.220347 1.81073 0.101868 1.52463 0.101868 1.22632C0.101868 0.928012 0.220347 0.641916 0.431252 0.430947Z" fill="#454C53"/>
</svg>
