<svg width="20" height="20" viewBox="0 0 20 20" fill="none" xmlns="http://www.w3.org/2000/svg">
<path d="M7.32501 16.1149C8.43568 17.0133 9.82152 17.5023 11.25 17.4999C12.1925 17.4999 13.0875 17.2912 13.8913 16.9162L16.7525 17.4874C16.8533 17.5075 16.9575 17.5024 17.0559 17.4726C17.1543 17.4427 17.2438 17.3891 17.3165 17.3164C17.3892 17.2437 17.4428 17.1542 17.4726 17.0558C17.5025 16.9575 17.5076 16.8532 17.4875 16.7524L16.9163 13.8924C17.2913 13.0887 17.5 12.1924 17.5 11.2499C17.5021 9.82186 17.0131 8.4365 16.115 7.32617C16.2929 8.2516 16.2959 9.20215 16.1238 10.1287C16.3859 11.2741 16.2377 12.4751 15.705 13.5224C15.6408 13.648 15.621 13.7916 15.6488 13.9299L16.0788 16.0787L13.9288 15.6487C13.7909 15.6212 13.6477 15.641 13.5225 15.7049C12.475 16.2384 11.2733 16.3866 10.1275 16.1237C9.20101 16.2959 8.25042 16.293 7.32501 16.1149Z" fill="#454C53"/>
<path d="M2.50001 8.7496C2.50052 7.39714 2.93972 6.08134 3.75167 4.99973C4.56363 3.91813 5.70452 3.12909 7.00307 2.75106C8.30162 2.37304 9.68776 2.42643 10.9534 2.90323C12.219 3.38002 13.2958 4.25449 14.0222 5.39535C14.7485 6.53621 15.0852 7.8819 14.9817 9.23039C14.8781 10.5789 14.34 11.8574 13.448 12.874C12.556 13.8906 11.3583 14.5905 10.0348 14.8685C8.71118 15.1465 7.33313 14.9877 6.10751 14.4158L3.24751 14.9871C3.14669 15.0072 3.04247 15.0021 2.9441 14.9722C2.84572 14.9424 2.75623 14.8888 2.68354 14.8161C2.61085 14.7434 2.55721 14.6539 2.52738 14.5555C2.49754 14.4571 2.49243 14.3529 2.51251 14.2521L3.08376 11.3908C2.69804 10.5638 2.49876 9.66215 2.50001 8.7496ZM8.75001 11.0996C8.54281 11.0996 8.34409 11.1819 8.19758 11.3284C8.05107 11.4749 7.96876 11.6736 7.96876 11.8808C7.96876 12.088 8.05107 12.2868 8.19758 12.4333C8.34409 12.5798 8.54281 12.6621 8.75001 12.6621C8.95721 12.6621 9.15592 12.5798 9.30243 12.4333C9.44895 12.2868 9.53126 12.088 9.53126 11.8808C9.53126 11.6736 9.44895 11.4749 9.30243 11.3284C9.15592 11.1819 8.95721 11.0996 8.75001 11.0996ZM8.75001 5.00335C7.44001 5.00335 6.42001 6.02585 6.43376 7.4471C6.43541 7.61286 6.50285 7.77117 6.62123 7.88721C6.73962 8.00325 6.89925 8.06751 7.06501 8.06585C7.23077 8.06419 7.38908 7.99675 7.50512 7.87837C7.62116 7.75999 7.68541 7.60036 7.68376 7.4346C7.67626 6.71085 8.13376 6.25335 8.75001 6.25335C9.34001 6.25335 9.81626 6.74335 9.81626 7.44085C9.81626 7.69335 9.72876 7.8346 9.36626 8.12085L9.02001 8.3896C8.38751 8.8946 8.12501 9.28585 8.12501 9.9996C8.12472 10.1558 8.18292 10.3064 8.28814 10.4218C8.39337 10.5372 8.53799 10.6091 8.69353 10.6232C8.84908 10.6373 9.00427 10.5927 9.12855 10.4981C9.25282 10.4035 9.33718 10.2658 9.36501 10.1121L9.37876 9.9171C9.40001 9.7321 9.50376 9.5996 9.81126 9.3571L10.1575 9.08835C10.7988 8.57585 11.0663 8.17335 11.0663 7.44085C11.0663 6.06085 10.0388 5.00335 8.75001 5.00335Z" fill="#454C53"/>
</svg>
