<svg width="28" height="28" viewBox="0 0 28 28" fill="none" xmlns="http://www.w3.org/2000/svg">
<mask id="mask0_271_3354" style="mask-type:alpha" maskUnits="userSpaceOnUse" x="0" y="0" width="28" height="28">
<rect x="0.5" y="0.5" width="27" height="27" rx="13.5" fill="#C9CDD2" stroke="black"/>
</mask>
<g mask="url(#mask0_271_3354)">
</g>
<g clip-path="url(#clip0_271_3354)">
<path d="M23.9088 23.9037C29.378 18.4346 29.378 9.56738 23.9088 4.09826C18.4397 -1.37086 9.57252 -1.37086 4.1034 4.09826C-1.36572 9.56738 -1.36572 18.4346 4.1034 23.9037C9.57252 29.3728 18.4397 29.3728 23.9088 23.9037Z" fill="#F5F5F5"/>
<path d="M9.98706 14.7938C11.2918 15.6761 13.1128 15.3101 14.0045 13.996C14.8868 12.6912 16.6609 12.3158 18.0219 13.1981C19.2797 14.0335 19.6552 15.6761 18.9512 16.9339C20.4906 14.3245 19.7866 10.9172 17.1771 9.19006C14.5208 7.416 10.9257 8.11999 9.15166 10.7764C9.10473 10.8702 9.0578 10.9641 9.01086 11.011C8.35381 12.3721 8.7762 13.9584 9.98706 14.7938Z" fill="#ED4C5C"/>
<path d="M18.8105 17.2249C18.8575 17.131 18.9044 17.0372 18.9513 16.9902C18.9044 17.0372 18.8575 17.131 18.8105 17.2249Z" fill="#003478"/>
<path d="M18.0126 13.2065C16.7078 12.3242 14.8869 12.6903 13.9951 14.0044C13.1128 15.3091 11.3388 15.6846 9.97771 14.8022C8.71992 13.9668 8.34446 12.3242 9.04844 11.0664C7.46212 13.6759 8.21304 17.0832 10.8225 18.8103C13.4789 20.5843 17.0739 19.8804 18.848 17.224C18.8949 17.1301 18.9418 17.0362 18.9888 16.9893C19.6458 15.6376 19.2234 14.0513 18.0126 13.2065Z" fill="#428BC1"/>
<path d="M2.7032 9.94021L5.92278 5.13431L5.59425 4.89964L5.26572 4.71191L2.04614 9.51781L2.37467 9.70554L2.7032 9.94021Z" fill="#3E4347"/>
<path d="M3.59489 10.5503L3.92341 10.7381L7.09606 5.93216L6.81446 5.74443L6.48593 5.50977L3.26636 10.3157L3.59489 10.5503Z" fill="#3E4347"/>
<path d="M7.64994 6.29883L4.47729 11.1047L4.80582 11.3394L5.13435 11.5271L8.307 6.72122L7.97847 6.53349L7.64994 6.29883Z" fill="#3E4347"/>
<path d="M21.7016 18.9047L22.0301 19.1394L23.5226 16.896L23.194 16.6614L22.8655 16.4736L21.373 18.717L21.7016 18.9047Z" fill="#3E4347"/>
<path d="M25.2967 18.0596L23.8042 20.303L24.1327 20.5376L24.4613 20.7253L25.9537 18.482L25.6252 18.2942L25.2967 18.0596Z" fill="#3E4347"/>
<path d="M23.241 19.9275L24.7335 17.6841L24.405 17.4494L24.0764 17.2617L22.584 19.5051L22.9125 19.6928L23.241 19.9275Z" fill="#3E4347"/>
<path d="M21.5139 19.2239L21.1853 19.0361L19.6929 21.2795L20.0214 21.4672L20.3499 21.7019L21.8424 19.4585L21.5139 19.2239Z" fill="#3E4347"/>
<path d="M22.6779 20.0217L22.3963 19.834L20.9038 22.0774L21.1854 22.2651L21.5139 22.4998L23.0064 20.2564L22.6779 20.0217Z" fill="#3E4347"/>
<path d="M23.5694 20.6318L22.0769 22.8752L22.4054 23.1099L22.734 23.2976L24.2264 21.0542L23.8979 20.8196L23.5694 20.6318Z" fill="#3E4347"/>
<path d="M2.38419 18.2942L2.05566 18.482L5.27524 23.2879L5.60377 23.1001L5.9323 22.8655L2.71272 18.0596L2.38419 18.2942Z" fill="#3E4347"/>
<path d="M5.32218 20.0217L4.99365 20.2564L6.48611 22.4998L6.81464 22.2651L7.09623 22.0774L5.60378 19.834L5.32218 20.0217Z" fill="#3E4347"/>
<path d="M4.80582 16.6614L4.47729 16.896L7.64994 21.7019L7.97847 21.4673L8.307 21.2795L5.13435 16.4736L4.80582 16.6614Z" fill="#3E4347"/>
<path d="M3.26636 17.6845L4.75881 19.9279L5.08734 19.6932L5.41587 19.5055L3.92341 17.2715L3.59489 17.4592L3.26636 17.6845Z" fill="#3E4347"/>
<path d="M23.8979 7.18996L24.2264 6.95529L22.734 4.71191L22.4054 4.89964L22.0769 5.13431L23.5694 7.37769L23.8979 7.18996Z" fill="#3E4347"/>
<path d="M21.5139 8.77687L21.8424 8.54221L20.3499 6.29883L20.0214 6.53349L19.6929 6.72122L21.1853 8.9646L21.5139 8.77687Z" fill="#3E4347"/>
<path d="M23.8042 7.69681L25.2967 9.94019L25.6252 9.70552L25.9537 9.51779L24.4613 7.27441L24.1327 7.46214L23.8042 7.69681Z" fill="#3E4347"/>
<path d="M24.405 10.5503L24.7335 10.3157L21.5139 5.50977L21.1854 5.74443L20.9038 5.93216L24.0765 10.7381L24.405 10.5503Z" fill="#3E4347"/>
<path d="M23.194 11.3394L23.5226 11.1047L22.0301 8.86133L21.7016 9.09599L21.373 9.28372L22.8655 11.5271L23.194 11.3394Z" fill="#3E4347"/>
</g>
<rect x="0.5" y="0.5" width="27" height="27" rx="13.5" stroke="#B1B7BD"/>
<defs>
<clipPath id="clip0_271_3354">
<rect width="28" height="28" fill="white"/>
</clipPath>
</defs>
</svg>
