<svg width="10" height="5" viewBox="0 0 10 5" fill="none" xmlns="http://www.w3.org/2000/svg">
<path d="M1.02235 0.307992C1.13955 0.190822 1.29849 0.125 1.46422 0.125C1.62995 0.125 1.78889 0.190822 1.9061 0.307992L4.99984 3.40174L8.09358 0.307992C8.21146 0.194143 8.36934 0.131146 8.53321 0.13257C8.69708 0.133994 8.85384 0.199725 8.96972 0.315605C9.0856 0.431485 9.15133 0.588243 9.15275 0.752116C9.15418 0.915989 9.09118 1.07386 8.97733 1.19174L5.44171 4.72737C5.32451 4.84454 5.16557 4.91036 4.99984 4.91036C4.83411 4.91036 4.67517 4.84454 4.55797 4.72737L1.02235 1.19174C0.905177 1.07454 0.839355 0.915594 0.839355 0.749866C0.839355 0.584139 0.905177 0.425196 1.02235 0.307992Z" fill="white"/>
</svg>
