<svg width="18" height="22" viewBox="0 0 18 22" fill="none" xmlns="http://www.w3.org/2000/svg">
<path d="M15.9999 3.22249L1.99995 3.22249C1.70436 3.2224 1.41982 3.11011 1.20383 2.90831C0.987838 2.70651 0.856499 2.43025 0.836352 2.13535C0.816204 1.84044 0.908749 1.54888 1.09529 1.31958C1.28182 1.09028 1.54845 0.94034 1.84128 0.900049L1.99995 0.88916L15.9999 0.88916C16.2955 0.88925 16.5801 1.00154 16.7961 1.20334C17.0121 1.40514 17.1434 1.6814 17.1635 1.97631C17.1837 2.27121 17.0911 2.56277 16.9046 2.79207C16.7181 3.02137 16.4514 3.17131 16.1586 3.2116L15.9999 3.22249L1.99995 3.22249L15.9999 3.22249ZM9.15862 21.8783L8.99995 21.8892C8.71802 21.8891 8.44564 21.787 8.23317 21.6017C8.0207 21.4164 7.88251 21.1605 7.84417 20.8812L7.83328 20.7225L7.83328 8.76338L4.3255 12.2696C4.12768 12.4674 3.86539 12.5875 3.58643 12.608C3.30746 12.6286 3.0304 12.5482 2.80573 12.3816L2.67506 12.2696C2.4773 12.0718 2.3572 11.8095 2.33664 11.5305C2.31608 11.2516 2.39644 10.9745 2.56306 10.7498L2.67506 10.6192L8.1755 5.12027C8.37304 4.92269 8.63493 4.80255 8.91354 4.78172C9.19215 4.76088 9.46899 4.84072 9.69373 5.00672L9.82439 5.12027L15.3248 10.6192C15.5336 10.8273 15.6558 11.1068 15.6669 11.4014C15.6779 11.696 15.5771 11.9839 15.3846 12.2071C15.192 12.4304 14.9221 12.5725 14.6291 12.6049C14.3361 12.6372 14.0417 12.5575 13.8051 12.3816L13.6744 12.2696L10.1666 8.76027L10.1666 20.7225C10.1666 21.0044 10.0645 21.2768 9.8792 21.4893C9.69389 21.7017 9.43792 21.8399 9.15862 21.8783L8.99995 21.8892L9.15862 21.8783Z" fill="#454C53"/>
</svg>
