<svg width="20" height="20" viewBox="0 0 20 20" fill="none" xmlns="http://www.w3.org/2000/svg">
<path d="M5 3.33301H4.16667C3.72464 3.33301 3.30072 3.5086 2.98816 3.82116C2.67559 4.13372 2.5 4.55765 2.5 4.99967V7.91634C2.5 9.13192 2.98289 10.2977 3.84243 11.1572C4.70197 12.0168 5.86776 12.4997 7.08333 12.4997C8.29891 12.4997 9.4647 12.0168 10.3242 11.1572C11.1838 10.2977 11.6667 9.13192 11.6667 7.91634V4.99967C11.6667 4.55765 11.4911 4.13372 11.1785 3.82116C10.8659 3.5086 10.442 3.33301 10 3.33301H9.16667" stroke="#454C53" stroke-width="1.5" stroke-linecap="round" stroke-linejoin="round"/>
<path d="M6.66667 12.5C6.66667 13.1566 6.796 13.8068 7.04727 14.4134C7.29854 15.02 7.66684 15.5712 8.13113 16.0355C8.59543 16.4998 9.14662 16.8681 9.75325 17.1194C10.3599 17.3707 11.0101 17.5 11.6667 17.5C12.3233 17.5 12.9735 17.3707 13.5801 17.1194C14.1867 16.8681 14.7379 16.4998 15.2022 16.0355C15.6665 15.5712 16.0348 15.02 16.2861 14.4134C16.5373 13.8068 16.6667 13.1566 16.6667 12.5V10M9.16667 2.5V4.16667M5 2.5V4.16667" stroke="#454C53" stroke-width="1.5" stroke-linecap="round" stroke-linejoin="round"/>
<path d="M16.6667 10.0003C17.5871 10.0003 18.3333 9.25413 18.3333 8.33366C18.3333 7.41318 17.5871 6.66699 16.6667 6.66699C15.7462 6.66699 15 7.41318 15 8.33366C15 9.25413 15.7462 10.0003 16.6667 10.0003Z" stroke="#454C53" stroke-width="1.5" stroke-linecap="round" stroke-linejoin="round"/>
</svg>
