<svg width="20" height="20" viewBox="0 0 20 20" fill="none" xmlns="http://www.w3.org/2000/svg">
<path d="M18.125 9.99965C18.1254 8.64811 17.7887 7.3178 17.1453 6.12922C16.5019 4.94064 15.5722 3.93133 14.4403 3.19271C13.3084 2.45409 12.0102 2.00949 10.6632 1.89918C9.31612 1.78887 7.96285 2.01633 6.72589 2.56096C5.48893 3.10559 4.40738 3.95018 3.57918 5.01825C2.75098 6.08631 2.2023 7.34411 1.98284 8.67772C1.76337 10.0113 1.88005 11.3786 2.32231 12.6558C2.76457 13.9329 3.51843 15.0795 4.51563 15.9918L4.61719 16.0856C6.10254 17.3993 8.01705 18.1245 10 18.1245C11.983 18.1245 13.8975 17.3993 15.3828 16.0856L15.4844 15.9918C16.3173 15.2318 16.9824 14.3062 17.4371 13.2744C17.8918 12.2426 18.1261 11.1272 18.125 9.99965ZM3.125 9.99965C3.12459 8.88617 3.39464 7.78924 3.91193 6.80321C4.42922 5.81718 5.17826 4.97154 6.09466 4.33903C7.01105 3.70651 8.06736 3.30605 9.17276 3.17206C10.2782 3.03808 11.3995 3.1746 12.4405 3.56987C13.4815 3.96514 14.4109 4.60733 15.1487 5.44123C15.8866 6.27513 16.4109 7.27577 16.6765 8.35711C16.9421 9.43845 16.9411 10.5681 16.6736 11.649C16.4061 12.7299 15.88 13.7296 15.1406 14.5622C14.4438 13.5515 13.462 12.771 12.3203 12.32C12.9327 11.8377 13.3795 11.1765 13.5987 10.4285C13.8179 9.68044 13.7985 8.88269 13.5433 8.14617C13.2881 7.40965 12.8097 6.77097 12.1746 6.31894C11.5396 5.86691 10.7795 5.62401 10 5.62401C9.22051 5.62401 8.4604 5.86691 7.82536 6.31894C7.19032 6.77097 6.71193 7.40965 6.45671 8.14617C6.20149 8.88269 6.18212 9.68044 6.40131 10.4285C6.62049 11.1765 7.06733 11.8377 7.67969 12.32C6.53798 12.771 5.55624 13.5515 4.85938 14.5622C3.74013 13.3062 3.1227 11.682 3.125 9.99965ZM7.5 9.37465C7.5 8.8802 7.64662 8.39685 7.92133 7.98573C8.19603 7.57461 8.58648 7.25417 9.04329 7.06495C9.50011 6.87574 10.0028 6.82623 10.4877 6.92269C10.9727 7.01915 11.4181 7.25726 11.7678 7.60689C12.1174 7.95652 12.3555 8.40198 12.452 8.88693C12.5484 9.37188 12.4989 9.87455 12.3097 10.3314C12.1205 10.7882 11.8 11.1786 11.3889 11.4533C10.9778 11.728 10.4945 11.8747 10 11.8747C9.33759 11.8726 8.7029 11.6085 8.23451 11.1401C7.76611 10.6717 7.50206 10.0371 7.5 9.37465ZM5.78906 15.4293C6.24134 14.7229 6.86409 14.1416 7.59996 13.7389C8.33583 13.3363 9.16118 13.1253 10 13.1253C10.8388 13.1253 11.6642 13.3363 12.4 13.7389C13.1359 14.1416 13.7587 14.7229 14.2109 15.4293C13.0069 16.3657 11.5252 16.874 10 16.874C8.47478 16.874 6.99306 16.3657 5.78906 15.4293Z" fill="#454C53"/>
</svg>
