<svg width="28" height="28" viewBox="0 0 28 28" fill="none" xmlns="http://www.w3.org/2000/svg">
<mask id="mask0_216_2451" style="mask-type:alpha" maskUnits="userSpaceOnUse" x="0" y="0" width="28" height="28">
<rect x="0.5" y="0.5" width="27" height="27" rx="13.5" fill="#C9CDD2" stroke="black"/>
</mask>
<g mask="url(#mask0_216_2451)">
</g>
<g clip-path="url(#clip0_216_2451)">
<path d="M0 14.0047C0 20.1153 3.92357 25.2967 9.3302 27.2115V0.797852C3.92357 2.70332 0 7.88468 0 14.0047Z" fill="#C94747"/>
<path d="M27.9999 14.0047C27.9999 7.88468 24.1233 2.70332 18.6697 0.797852V27.2115C24.1233 25.2967 27.9999 20.1153 27.9999 14.0047Z" fill="#C94747"/>
<path d="M9.33032 27.2115C10.7758 27.7278 12.3622 28.0094 13.9954 28.0094C15.6287 28.0094 17.215 27.7278 18.6605 27.2115V0.797855C17.2244 0.281596 15.6381 0 14.0048 0C12.3716 0 10.7852 0.281596 9.33971 0.797855V27.2115H9.33032Z" fill="#2872A0"/>
<path d="M6.29031 11.4225C6.92813 10.7846 6.92813 9.75052 6.29031 9.1127C5.65249 8.47488 4.61838 8.47488 3.98056 9.1127C3.34274 9.75052 3.34274 10.7846 3.98056 11.4225C4.61838 12.0603 5.65249 12.0603 6.29031 11.4225Z" fill="#F9CF02"/>
<path d="M5.8481 11.056C6.80122 10.6612 7.25382 9.56852 6.85902 8.6154C6.46422 7.66228 5.37151 7.20968 4.4184 7.60448C3.46528 7.99929 3.01268 9.09199 3.40748 10.0451C3.80228 10.9982 4.89499 11.4508 5.8481 11.056Z" fill="#C94747"/>
<path d="M5.95635 10.6223C6.41088 10.1678 6.41088 9.43084 5.95635 8.9763C5.50181 8.52177 4.76486 8.52177 4.31032 8.9763C3.85578 9.43084 3.85578 10.1678 4.31032 10.6223C4.76486 11.0769 5.50181 11.0769 5.95635 10.6223Z" fill="#F9CF02"/>
<path d="M4.43033 7.47174C4.43033 7.94107 4.66499 8.17573 5.13432 8.17573C5.60365 8.17573 6.06359 7.94107 6.06359 7.47174C6.06359 7.23708 5.82892 7.23708 5.82892 7.00242V6.53309V7.23708C5.82892 7.23708 5.82892 7.47174 5.59426 7.47174C5.3596 7.47174 5.3596 7.47174 5.3596 7.23708C5.3596 7.00242 5.59426 7.00242 5.59426 6.76775C5.59426 6.53309 5.59426 6.53309 5.3596 6.29843C5.3596 6.06376 5.12493 6.06376 5.12493 5.8291C4.89027 5.8291 5.12493 6.29843 5.12493 6.29843C5.12493 6.29843 4.89027 6.53309 4.89027 6.76775V7.23708C4.89027 7.23708 4.89027 7.47174 4.65561 7.47174C4.42095 7.47174 4.42095 7.47174 4.42095 7.23708V7.00242C4.42095 6.76775 4.18628 6.76775 4.42095 6.53309C4.18628 6.76775 4.42095 6.76775 4.42095 7.00242L4.43033 7.47174Z" fill="#F9CF02"/>
<path d="M1.86792 12.1367V19.3737H3.26651V12.1367H1.86792ZM7.00235 12.1367V19.3737H8.63561V12.1367H7.00235ZM3.73584 13.3006V14.0046H6.76769V13.3006H3.73584ZM3.73584 17.4964V18.2004H6.76769V17.4964H3.73584ZM3.73584 12.1367H6.76769L5.13443 13.066L3.73584 12.1367ZM3.73584 18.4351H6.76769L5.13443 19.3643L3.73584 18.4351Z" fill="#F9CF02"/>
<path d="M5.22841 17.3557C6.10451 17.3557 6.81474 16.6455 6.81474 15.7694C6.81474 14.8933 6.10451 14.1831 5.22841 14.1831C4.35231 14.1831 3.64209 14.8933 3.64209 15.7694C3.64209 16.6455 4.35231 17.3557 5.22841 17.3557Z" fill="#F9CF02"/>
<path d="M5.22828 17.4966C4.29902 17.4966 3.5481 16.7457 3.5481 15.8164C3.5481 14.8872 4.29902 14.1362 5.22828 14.1362C6.15755 14.1362 6.90847 14.8872 6.90847 15.8164C6.90847 16.7551 6.15755 17.4966 5.22828 17.4966ZM5.22828 14.277C4.39288 14.277 3.68889 14.981 3.68889 15.8164C3.68889 16.6518 4.39288 17.3558 5.22828 17.3558C6.06368 17.3558 6.76767 16.6518 6.76767 15.8164C6.76767 14.981 6.06368 14.277 5.22828 14.277Z" fill="#C94747"/>
<path d="M5.22828 17.4966C4.71202 17.4966 4.34595 17.0742 4.34595 16.6143C4.34595 16.1449 4.76834 15.7319 5.22828 15.7319C5.60374 15.7319 5.93227 15.4034 5.93227 15.028C5.93227 14.6525 5.60374 14.324 5.22828 14.324V14.1362C5.74454 14.1362 6.11061 14.5586 6.11061 15.0186C6.11061 15.5348 5.68822 15.9009 5.22828 15.9009C4.85282 15.9009 4.52429 16.2294 4.52429 16.6049C4.52429 16.9803 4.85282 17.3089 5.22828 17.3089V17.4966Z" fill="#C94747"/>
<path d="M5.22819 15.3094C5.40963 15.3094 5.55672 15.1623 5.55672 14.9809C5.55672 14.7994 5.40963 14.6523 5.22819 14.6523C5.04675 14.6523 4.89966 14.7994 4.89966 14.9809C4.89966 15.1623 5.04675 15.3094 5.22819 15.3094Z" fill="#C94747"/>
<path d="M5.22837 16.2856C5.37856 16.2856 5.50997 16.4077 5.50997 16.5672C5.50997 16.7174 5.38794 16.8488 5.22837 16.8488C5.07819 16.8488 4.94678 16.7268 4.94678 16.5672C4.94678 16.4171 5.0688 16.2856 5.22837 16.2856Z" fill="#C94747"/>
</g>
<rect x="0.5" y="0.5" width="27" height="27" rx="13.5" stroke="#B1B7BD"/>
<defs>
<clipPath id="clip0_216_2451">
<rect width="28" height="28" fill="white"/>
</clipPath>
</defs>
</svg>
