<svg width="20" height="20" viewBox="0 0 20 20" fill="none" xmlns="http://www.w3.org/2000/svg">
<path d="M13.3333 3.33398H15C15.442 3.33398 15.866 3.50958 16.1785 3.82214C16.4911 4.1347 16.6667 4.55862 16.6667 5.00065V16.6673C16.6667 17.1093 16.4911 17.5333 16.1785 17.8458C15.866 18.1584 15.442 18.334 15 18.334H5.00001C4.55798 18.334 4.13406 18.1584 3.8215 17.8458C3.50894 17.5333 3.33334 17.1093 3.33334 16.6673V5.00065C3.33334 4.55862 3.50894 4.1347 3.8215 3.82214C4.13406 3.50958 4.55798 3.33398 5.00001 3.33398H6.66668" stroke="#454C53" stroke-width="1.5" stroke-linecap="round" stroke-linejoin="round"/>
<path d="M6.66669 9.16699H6.67502M12.5 1.66699H7.50002C7.27901 1.66699 7.06705 1.75479 6.91076 1.91107C6.75448 2.06735 6.66669 2.27931 6.66669 2.50033V4.16699C6.66669 4.38801 6.75448 4.59997 6.91076 4.75625C7.06705 4.91253 7.27901 5.00033 7.50002 5.00033H12.5C12.721 5.00033 12.933 4.91253 13.0893 4.75625C13.2456 4.59997 13.3334 4.38801 13.3334 4.16699V2.50033C13.3334 2.27931 13.2456 2.06735 13.0893 1.91107C12.933 1.75479 12.721 1.66699 12.5 1.66699V1.66699ZM10 9.16699H13.3334H10ZM10 13.3337H13.3334H10Z" stroke="#454C53" stroke-width="1.5" stroke-linecap="round" stroke-linejoin="round"/>
<path d="M6.66669 13.334H6.67502" stroke="#454C53" stroke-width="1.5" stroke-linecap="round" stroke-linejoin="round"/>
</svg>
