<svg width="20" height="20" viewBox="0 0 20 20" fill="none" xmlns="http://www.w3.org/2000/svg">
<path d="M7.49999 4.16699H5.83332C5.3913 4.16699 4.96737 4.34259 4.65481 4.65515C4.34225 4.96771 4.16666 5.39163 4.16666 5.83366V15.8337C4.16666 16.2757 4.34225 16.6996 4.65481 17.0122C4.96737 17.3247 5.3913 17.5003 5.83332 17.5003H14.1667C14.6087 17.5003 15.0326 17.3247 15.3452 17.0122C15.6577 16.6996 15.8333 16.2757 15.8333 15.8337V5.83366C15.8333 5.39163 15.6577 4.96771 15.3452 4.65515C15.0326 4.34259 14.6087 4.16699 14.1667 4.16699H12.5" stroke="#454C53" stroke-width="1.5" stroke-linecap="round" stroke-linejoin="round"/>
<path d="M10.8333 2.5H9.16667C8.24619 2.5 7.5 3.24619 7.5 4.16667C7.5 5.08714 8.24619 5.83333 9.16667 5.83333H10.8333C11.7538 5.83333 12.5 5.08714 12.5 4.16667C12.5 3.24619 11.7538 2.5 10.8333 2.5Z" stroke="#454C53" stroke-width="1.5" stroke-linecap="round" stroke-linejoin="round"/>
<path d="M9.99998 10V13.3333M8.33331 11.6667H11.6666H8.33331Z" stroke="#454C53" stroke-width="1.5" stroke-linecap="round" stroke-linejoin="round"/>
</svg>
