<svg width="14" height="14" viewBox="0 0 14 14" fill="none" xmlns="http://www.w3.org/2000/svg">
<path d="M3.84375 6.40625C3.70285 6.26535 3.6237 6.07426 3.6237 5.875C3.6237 5.67574 3.70285 5.48465 3.84375 5.34375C3.98465 5.20285 4.17574 5.1237 4.375 5.1237C4.57426 5.1237 4.76535 5.20285 4.90625 5.34375L6.25 6.6875V1.5C6.25 1.30109 6.32902 1.11032 6.46967 0.96967C6.61032 0.829018 6.80109 0.75 7 0.75C7.19891 0.75 7.38968 0.829018 7.53033 0.96967C7.67098 1.11032 7.75 1.30109 7.75 1.5V6.6875L9.09375 5.34375C9.23465 5.20285 9.42574 5.1237 9.625 5.1237C9.82426 5.1237 10.0154 5.20285 10.1562 5.34375C10.2971 5.48465 10.3763 5.67574 10.3763 5.875C10.3763 6.07426 10.2971 6.26535 10.1562 6.40625L7.53125 9.03125C7.38972 9.17095 7.19886 9.24927 7 9.24927C6.80114 9.24927 6.61028 9.17095 6.46875 9.03125L3.84375 6.40625ZM12.5 7.75C12.3011 7.75 12.1103 7.82902 11.9697 7.96967C11.829 8.11032 11.75 8.30109 11.75 8.5V11.75H2.25V8.5C2.25 8.30109 2.17098 8.11032 2.03033 7.96967C1.88968 7.82902 1.69891 7.75 1.5 7.75C1.30109 7.75 1.11032 7.82902 0.96967 7.96967C0.829018 8.11032 0.75 8.30109 0.75 8.5V12C0.751643 12.331 0.883866 12.648 1.11793 12.8821C1.352 13.1161 1.66899 13.2484 2 13.25H12C12.331 13.2484 12.648 13.1161 12.8821 12.8821C13.1161 12.648 13.2484 12.331 13.25 12V8.5C13.25 8.30109 13.171 8.11032 13.0303 7.96967C12.8897 7.82902 12.6989 7.75 12.5 7.75Z" fill="#72787F"/>
</svg>
